<svg width="162" height="161" viewBox="0 0 162 161" fill="none" xmlns="http://www.w3.org/2000/svg">
<path d="M77.1859 160.116C77.1303 160.116 77.0746 160.116 77.0375 160.097L42.1531 153.135C42.0417 153.116 41.9304 153.076 41.8562 152.998L13.596 133.443C13.5032 133.384 13.429 133.286 13.3548 133.188L3.11221 117.329C2.96376 117.094 2.92665 116.82 3.00088 116.547L13.0208 84.3974L15.73 58.5449L0.811221 29.4462C0.699888 29.2311 0.681391 28.9574 0.755614 28.7227C0.829836 28.488 1.01541 28.2925 1.23808 28.1947L25.9911 17.5173L49.0928 0.973355C49.3155 0.816911 49.6124 0.777794 49.8537 0.875572L72.7883 9.75378C72.9182 9.81245 73.0481 9.89068 73.1409 10.008L80.9898 19.9031L130.069 17.8889C130.181 17.8889 130.31 17.9085 130.403 17.9476L160.909 30.5413C161.131 30.6391 161.298 30.8151 161.391 31.0498C161.484 31.2844 161.465 31.5387 161.354 31.7734L146.213 63.5902L131.461 92.1022L130.403 121.123C130.403 121.279 130.348 121.436 130.255 121.572L120.977 136.298C120.921 136.396 120.847 136.474 120.754 136.532L100.807 151.375C100.733 151.414 100.677 151.453 100.603 151.492L77.4643 160.038C77.3901 160.097 77.2787 160.116 77.1859 160.116ZM42.6355 151.414L77.1302 158.317L99.9537 149.889L119.678 135.222L128.733 120.849L129.791 91.8676C129.791 91.7307 129.828 91.5938 129.902 91.4765L144.728 62.808L159.443 31.8907L129.958 19.7271L80.6373 21.7413C80.396 21.7609 80.1177 21.6436 79.9507 21.4284L71.9904 11.3769L49.668 2.73334L26.7705 19.1209L2.74107 29.5049L17.3443 57.9778C17.4185 58.1342 17.4556 58.3102 17.437 58.5058L14.6537 84.808L4.72653 116.723L14.6351 132.074L42.6355 151.414Z" fill="white"/>
<path d="M77.1859 160.116C76.7406 160.116 76.3694 159.745 76.3509 159.276L75.2004 137.276C75.2004 137.197 75.2005 137.139 75.219 137.06L82.4 96.3067L77.9282 55.8071C77.8911 55.4355 78.0766 55.064 78.3921 54.9076L103.442 42.0987L134.077 30.2676C134.17 30.2284 134.281 30.2284 134.374 30.2089L160.612 30.5413C161.076 30.5413 161.447 30.952 161.447 31.4409C161.447 31.9298 161.057 32.3209 160.593 32.3209C160.593 32.3209 160.593 32.3209 160.575 32.3209L134.485 31.9885L104.073 43.7413L79.6538 56.2373L84.0701 96.248C84.0701 96.3262 84.0701 96.424 84.0701 96.5218L76.889 137.315L78.0395 159.217C78.0581 159.706 77.7054 160.136 77.2415 160.156C77.223 160.116 77.2045 160.116 77.1859 160.116Z" fill="white"/>
<path d="M78.763 56.5698C78.7445 56.5698 78.726 56.5698 78.7074 56.5698L49.4267 54.4578C49.2783 54.4382 49.1113 54.3795 49 54.3013L27.1972 37.8551L1.33075 29.896C0.885415 29.7591 0.625642 29.2702 0.755531 28.8009C0.88542 28.3315 1.3493 28.0578 1.79464 28.1947L27.791 36.2124C27.8838 36.232 27.9766 36.2907 28.0508 36.3493L49.7793 52.7369L78.8188 54.8293C79.2827 54.8684 79.6352 55.2791 79.5981 55.7876C79.5795 56.2178 79.2084 56.5698 78.763 56.5698Z" fill="white"/>
<path d="M120.29 136.728C119.882 136.728 119.53 136.415 119.455 135.985L113.536 98.7511C113.518 98.6338 113.518 98.4969 113.555 98.3796L123 61.5369L133.242 31.7538L103.331 25.6329L67.0175 22.4453C66.8134 22.4258 66.6092 22.328 66.4794 22.1716L48.9629 2.36177C48.6475 2.00977 48.6661 1.44266 49.0001 1.11021C49.3341 0.777769 49.8722 0.797332 50.1876 1.14933L67.4814 20.7049L103.553 23.8729L134.523 30.2089C134.764 30.2676 134.968 30.424 135.098 30.6391C135.228 30.8738 135.246 31.128 135.153 31.3822L124.595 62.0649L115.225 98.6533L121.107 135.711C121.181 136.2 120.866 136.65 120.42 136.728C120.383 136.728 120.328 136.728 120.29 136.728Z" fill="white"/>
<path d="M100.343 151.571C100.325 151.571 100.325 151.571 100.306 151.571C99.8423 151.551 99.4711 151.14 99.5082 150.632L100.807 119.46L102.013 80.936L102.941 43.7805L76.5736 45.0907C76.4251 45.0907 76.2767 45.0711 76.1468 44.9929L50.5772 31.2845L25.9541 19.16C25.5273 18.9449 25.3417 18.4169 25.5458 17.9867C25.7499 17.5369 26.251 17.3413 26.6592 17.5564L51.3009 29.7005L76.7035 43.3307L103.758 41.9813C103.999 42.0009 104.221 42.0595 104.388 42.2355C104.555 42.4115 104.648 42.6462 104.648 42.9005L103.683 81.0142L102.477 119.558L101.178 150.73C101.16 151.199 100.789 151.571 100.343 151.571Z" fill="white"/>
<path d="M42.3201 153.135C41.8562 153.135 41.485 152.744 41.4665 152.275L40.9654 132.015C40.9654 131.898 40.984 131.78 41.0211 131.683L54.6223 94.3902L48.6475 53.7147C48.5918 53.2845 48.833 52.8738 49.2227 52.7369L76.1468 43.4284L103.015 24.0293C103.108 23.9707 103.201 23.912 103.312 23.8925L129.921 17.9671C130.385 17.8498 130.83 18.1822 130.923 18.6516C131.016 19.1405 130.719 19.6098 130.273 19.7076L103.832 25.5938L77.0004 44.9734C76.9262 45.0125 76.8704 45.0516 76.7776 45.0907L50.4103 54.2036L56.2923 94.3511C56.3109 94.5076 56.2924 94.664 56.2367 94.8009L42.6169 132.152L43.1179 152.236C43.1365 152.724 42.7654 153.135 42.3015 153.155C42.32 153.135 42.3201 153.135 42.3201 153.135Z" fill="white"/>
<path d="M14.0413 133.58C13.9114 133.58 13.7816 133.54 13.6517 133.482C13.2435 133.247 13.0765 132.719 13.2991 132.289L26.2509 106.124L39.8521 77.8071L26.7705 37.3271C26.6963 37.0925 26.7148 36.8382 26.8261 36.6036C26.9374 36.3885 27.1416 36.232 27.3643 36.1733L51.672 30.2284L66.6464 20.7636C67.036 20.5093 67.5741 20.6462 67.8154 21.0765C68.0566 21.5067 67.9266 22.0542 67.5184 22.3085L52.4327 31.832C52.3585 31.8711 52.2843 31.9102 52.1915 31.9298L28.6631 37.6987L41.5592 77.5725C41.6334 77.8071 41.6148 78.0418 41.5221 78.2569L27.7539 106.925L14.7836 133.11C14.6351 133.404 14.3382 133.58 14.0413 133.58Z" fill="white"/>
<path d="M76.054 138.097C76.0169 138.097 75.9798 138.097 75.9241 138.097L41.6891 132.876C41.4479 132.836 41.2252 132.68 41.0953 132.465L26.288 107.004L13.1135 85.1796C12.8723 84.7689 12.9836 84.2213 13.3733 83.9476C13.763 83.6738 14.2825 83.8107 14.5423 84.2213L27.7167 106.065L42.32 131.194L75.8498 136.317L101.03 118.893L113.648 98.1449C113.74 97.9885 113.889 97.8711 114.056 97.7929L130.329 91.0854C130.756 90.9094 131.257 91.1245 131.424 91.5938C131.591 92.0436 131.387 92.5716 130.941 92.7476L114.928 99.3573L102.347 120.028C102.292 120.125 102.199 120.223 102.106 120.282L76.4993 137.98C76.3694 138.058 76.2025 138.097 76.054 138.097Z" fill="white"/>
<path d="M83.2536 97.2062C83.235 97.2062 83.2164 97.2062 83.1979 97.2062L55.4387 95.3484C55.216 95.3289 55.0119 95.2311 54.8635 95.0551L39.9449 77.8267L16.101 59.0729C15.7299 58.7795 15.6556 58.2124 15.934 57.8213C16.2123 57.4302 16.7319 57.352 17.1216 57.6453L41.0767 76.4969L55.8841 93.5689L82.9938 95.3875L102.347 80.232L123.259 61.048C123.426 60.8916 123.649 60.8133 123.872 60.8329L145.526 62.2996C145.99 62.3387 146.342 62.7493 146.305 63.2382C146.268 63.7271 145.86 64.0987 145.415 64.0595L124.113 62.6124L103.405 81.6009L83.7545 96.9911C83.6061 97.1475 83.4206 97.2062 83.2536 97.2062Z" fill="white"/>
<path d="M59.057 156.029C58.9272 156.029 58.7973 155.971 58.7231 155.853L43.6374 135.183L51.4865 153.8C51.5792 154.035 51.4864 154.289 51.2637 154.387C51.0596 154.484 50.7998 154.387 50.707 154.152L41.4293 132.132C41.3365 131.917 41.4108 131.683 41.5963 131.565C41.7819 131.448 42.0231 131.507 42.153 131.683L59.391 155.286C59.5395 155.482 59.5024 155.756 59.3168 155.912C59.2241 156.01 59.1498 156.029 59.057 156.029Z" fill="white"/>
<path d="M73.215 158.865C73.1222 158.865 73.0294 158.826 72.9552 158.767L47.6269 137.432L65.8855 156.577C66.0525 156.753 66.0525 157.027 65.8855 157.203C65.7185 157.379 65.4587 157.379 65.2917 157.203L41.5221 132.289C41.3551 132.132 41.3552 131.859 41.5036 131.683C41.652 131.507 41.9118 131.487 42.0788 131.624L73.4748 158.063C73.6603 158.22 73.6788 158.493 73.549 158.689C73.4562 158.806 73.3263 158.865 73.215 158.865Z" fill="white"/>
<path d="M77.0189 156.303C76.9446 156.303 76.8519 156.284 76.7962 156.225L41.5778 132.348C41.3922 132.211 41.3365 131.956 41.4293 131.761C41.5407 131.546 41.7819 131.468 41.986 131.585L76.8705 149.126C77.0746 149.224 77.1674 149.498 77.0746 149.713C76.9818 149.928 76.7221 150.026 76.5179 149.928L47.6455 135.418L77.2601 155.482C77.4642 155.619 77.5199 155.892 77.39 156.088C77.2972 156.225 77.1488 156.303 77.0189 156.303Z" fill="white"/>
<path d="M76.3509 143.475C76.3138 143.475 76.2767 143.475 76.221 143.455L41.6706 132.406C41.4479 132.328 41.3181 132.093 41.3923 131.859C41.4665 131.624 41.6891 131.487 41.9118 131.565L76.4622 142.614C76.6849 142.692 76.8148 142.927 76.7406 143.162C76.7035 143.338 76.5365 143.475 76.3509 143.475Z" fill="white"/>
<path d="M69.5225 136.669C69.4668 136.669 69.4297 136.669 69.374 136.65C69.1514 136.572 69.0401 136.317 69.1143 136.083L80.6187 102.643L64.4383 135.613C64.327 135.828 64.0672 135.926 63.8631 135.809C63.659 135.692 63.5661 135.418 63.6775 135.203L82.8454 96.1307C82.9382 95.9156 83.1793 95.8373 83.3834 95.9351C83.5876 96.0329 83.6804 96.2675 83.6062 96.5022L69.8751 136.396C69.8565 136.552 69.6895 136.669 69.5225 136.669Z" fill="white"/>
<path d="M58.519 134.988C58.4448 134.988 58.352 134.968 58.2777 134.909C58.0922 134.772 58.0365 134.499 58.1664 134.284L78.9487 102.154L52.5998 133.873C52.4513 134.068 52.173 134.088 52.006 133.912C51.839 133.756 51.8204 133.462 51.9688 133.286L82.9195 96.0133C83.0679 95.8373 83.3092 95.8178 83.4948 95.9546C83.6618 96.0915 83.7174 96.3653 83.5876 96.5609L58.853 134.772C58.7787 134.909 58.6489 134.988 58.519 134.988Z" fill="white"/>
<path d="M46.0496 133.071C45.9383 133.071 45.827 133.032 45.7342 132.934C45.5857 132.758 45.5858 132.465 45.7528 132.308L77.3158 101.508L43.7487 127.713C43.5632 127.85 43.2848 127.811 43.1549 127.615C43.0065 127.42 43.0623 127.146 43.2478 126.989L82.9938 95.9742C83.1793 95.8373 83.4205 95.8764 83.569 96.0524C83.7174 96.2284 83.6988 96.5022 83.5318 96.6586L46.328 132.973C46.2538 133.032 46.1424 133.071 46.0496 133.071Z" fill="white"/>
<path d="M46.3465 119.949C46.1981 119.949 46.0682 119.871 45.9754 119.734C45.8641 119.519 45.9198 119.245 46.1239 119.128L78.1322 99.0053L49.6309 111.345C49.4082 111.423 49.1669 111.325 49.0742 111.11C48.9814 110.876 49.0927 110.621 49.2968 110.524L83.0679 95.896C83.2721 95.8178 83.5134 95.896 83.6061 96.1111C83.6989 96.3262 83.6432 96.5804 83.4391 96.6978L46.5506 119.891C46.495 119.93 46.4208 119.949 46.3465 119.949Z" fill="white"/>
<path d="M51.7092 105.244C51.5237 105.244 51.3566 105.107 51.3009 104.911C51.2453 104.676 51.3752 104.422 51.5979 104.364L77.8539 97.304L53.7503 99.7289C53.5276 99.7876 53.305 99.5724 53.2864 99.3182C53.2678 99.064 53.4349 98.8489 53.6575 98.8293L83.1794 95.8569C83.402 95.8373 83.6061 95.9938 83.6433 96.2284C83.6804 96.4631 83.5505 96.6782 83.3278 96.7369L51.802 105.224C51.7834 105.244 51.7463 105.244 51.7092 105.244Z" fill="white"/>
<path d="M114.371 99.0444C114.241 99.0444 114.111 98.9858 114.037 98.8684C113.907 98.6924 113.926 98.4187 114.093 98.2622L138.512 75.7929C138.679 75.6364 138.957 75.656 139.106 75.832C139.254 76.008 139.236 76.3013 139.069 76.4578L119.53 94.4489L134.226 84.1431C134.411 84.0062 134.69 84.0649 134.819 84.2604C134.949 84.456 134.894 84.7493 134.708 84.8862L114.631 98.9662C114.538 99.0053 114.445 99.0444 114.371 99.0444Z" fill="white"/>
<path d="M114.371 99.0444C114.278 99.0444 114.186 99.0053 114.112 98.9467C113.945 98.7902 113.907 98.536 114.037 98.3404L137.993 62.4756C138.122 62.2604 138.382 62.2213 138.586 62.3582C138.772 62.4951 138.828 62.7689 138.698 62.984L118.379 93.4124L145.192 62.9058C145.359 62.7298 145.619 62.7102 145.786 62.8862C145.953 63.0427 145.971 63.336 145.804 63.512L114.705 98.888C114.594 98.9858 114.483 99.0444 114.371 99.0444Z" fill="white"/>
<path d="M114.371 99.0444C114.316 99.0444 114.241 99.0249 114.186 99.0053C113.982 98.9075 113.889 98.6338 113.982 98.4187L130.255 62.0258C130.348 61.8107 130.607 61.7129 130.812 61.8107C131.016 61.9085 131.108 62.1822 131.016 62.3973L114.742 98.7902C114.687 98.9467 114.52 99.0444 114.371 99.0444Z" fill="white"/>
</svg>
