<svg width="163" height="163" viewBox="0 0 163 163" fill="none" xmlns="http://www.w3.org/2000/svg">
<path d="M102.162 162.257C102.107 162.257 102.069 162.257 102.014 162.238L55.9403 153.692C55.7362 153.653 55.5507 153.535 55.4208 153.359L30.4635 118.726L0.960221 62.6411C0.848888 62.426 0.830316 62.1913 0.885983 61.9566L10.7019 25.7593C10.7576 25.5442 10.8874 25.3682 11.0544 25.2509L46.9038 0.962858C47.0522 0.86508 47.2192 0.806459 47.3677 0.826015L111.162 2.17535C111.236 2.17535 111.31 2.19489 111.384 2.21444L150.221 14.5736C150.499 14.6518 150.704 14.8865 150.796 15.1798L162.319 57.9087C162.375 58.1238 162.356 58.3584 162.264 58.554L141.147 102.163L115.3 147.414L102.83 161.944C102.626 162.159 102.403 162.257 102.162 162.257ZM56.5526 152.01L101.847 160.399L113.908 146.378L139.626 101.322L160.575 58.0651L149.275 16.1576L110.995 3.97443L47.5718 2.62509L12.2049 26.5806L2.57455 62.1131L31.8552 117.768L56.5526 152.01Z" fill="white"/>
<path d="M43.9164 53.6651C43.7308 53.6651 43.5452 53.6065 43.3968 53.4696L10.9617 26.7176C10.5906 26.4047 10.5349 25.8571 10.8132 25.466C11.1101 25.0749 11.6297 25.0162 12.0008 25.3096L44.139 51.8269L99.7872 42.0882L110.308 2.84027C110.438 2.37093 110.902 2.09716 111.347 2.23405C111.793 2.37094 112.052 2.85982 111.922 3.32915L101.272 43.1247C101.179 43.4571 100.919 43.7114 100.604 43.77L44.0648 53.6651C44.0092 53.6651 43.9535 53.6651 43.9164 53.6651Z" fill="white"/>
<path d="M140.35 102.671C140.09 102.671 139.83 102.534 139.663 102.3L99.7686 43.3984C99.4903 43.0073 99.583 42.4402 99.9727 42.1664C100.344 41.8731 100.882 41.9709 101.142 42.3816L141.036 101.283C141.314 101.694 141.222 102.241 140.832 102.515C140.684 102.632 140.517 102.671 140.35 102.671Z" fill="white"/>
<path d="M114.539 147.864C114.39 147.864 114.242 147.825 114.112 147.747L69.5231 120.31C69.3561 120.213 69.2447 120.056 69.1705 119.88L43.1371 53.098C42.9515 52.6482 43.1742 52.1202 43.601 51.9442C44.0277 51.7487 44.5287 51.9834 44.6957 52.4331L70.6178 118.922L114.966 146.202C115.374 146.456 115.504 147.004 115.262 147.414C115.114 147.708 114.817 147.864 114.539 147.864Z" fill="white"/>
<path d="M69.9498 120.447H69.9312L31.0944 119.098C30.6305 119.078 30.2594 118.668 30.278 118.179C30.2965 117.69 30.6676 117.318 31.1501 117.318L69.9869 118.668C70.4508 118.687 70.8219 119.098 70.8033 119.587C70.7662 120.056 70.3951 120.447 69.9498 120.447Z" fill="white"/>
<path d="M120.402 38.1576H120.384L57.5547 34.794C57.3877 34.794 57.2392 34.6571 57.1835 34.4811L46.9409 1.88201C46.8667 1.64734 46.9965 1.39316 47.2006 1.31494C47.4233 1.23672 47.6645 1.35402 47.7388 1.58869L57.8887 33.8945L120.291 37.2385L149.72 15.0625C149.906 14.9256 150.165 14.9647 150.314 15.1602C150.444 15.3558 150.407 15.6492 150.221 15.786L120.681 38.0403C120.569 38.1185 120.495 38.1576 120.402 38.1576Z" fill="white"/>
<path d="M21.093 83.5264C20.9817 83.5264 20.8703 83.4874 20.7961 83.3896L1.38703 62.5238C1.22003 62.3478 1.22003 62.074 1.38703 61.898C1.55403 61.722 1.81376 61.722 1.98076 61.898L21.0559 82.4118L57.2392 34.0509C57.3876 33.8554 57.6474 33.8162 57.833 33.9727C58.0185 34.1291 58.0557 34.4029 57.9072 34.5985L21.427 83.3505C21.3528 83.4482 21.2414 83.5069 21.1115 83.5264C21.093 83.5264 21.093 83.5264 21.093 83.5264Z" fill="white"/>
<path d="M56.0703 153.262C55.9033 153.262 55.7548 153.164 55.6806 152.988L44.5844 125.102L20.7219 83.3113C20.6106 83.0962 20.6663 82.8224 20.8704 82.7051C21.0745 82.5878 21.3343 82.6464 21.4456 82.8615L45.3451 124.71L56.4599 152.655C56.5527 152.89 56.4414 153.144 56.2373 153.242C56.1816 153.262 56.1259 153.262 56.0703 153.262Z" fill="white"/>
<path d="M124.559 112.117C124.503 112.117 124.466 112.117 124.41 112.078L91.7711 98.8189C91.6598 98.7798 91.567 98.682 91.5299 98.5647C91.4928 98.4473 91.4928 98.3105 91.5485 98.2127L120.031 37.5122C120.143 37.2971 120.384 37.1994 120.588 37.3167C120.792 37.434 120.885 37.6882 120.773 37.9034L92.4947 98.1736L124.41 111.139L161.132 57.9087C161.262 57.7132 161.54 57.6545 161.726 57.8109C161.911 57.9478 161.948 58.2411 161.818 58.4367L124.911 111.941C124.819 112.058 124.689 112.117 124.559 112.117Z" fill="white"/>
<path d="M102.162 161.807C102.107 161.807 102.032 161.788 101.977 161.768C101.773 161.67 101.68 161.397 101.773 161.182L124.169 111.491C124.262 111.276 124.522 111.178 124.726 111.276C124.93 111.374 125.023 111.647 124.93 111.862L102.533 161.553C102.478 161.729 102.311 161.807 102.162 161.807Z" fill="white"/>
<path d="M44.974 125.395C44.8256 125.395 44.6771 125.317 44.6029 125.16C44.4916 124.945 44.5658 124.671 44.7699 124.554L91.6969 98.0171C91.901 97.8998 92.1608 97.978 92.2721 98.1931C92.3835 98.4082 92.3092 98.682 92.1051 98.7993L45.1781 125.336C45.1224 125.375 45.0483 125.395 44.974 125.395Z" fill="white"/>
</svg>
