<svg width="162" height="166" viewBox="0 0 162 166" fill="none" xmlns="http://www.w3.org/2000/svg">
<path d="M83.1661 165.237C82.9434 165.237 82.7207 165.139 82.5723 164.963C82.3125 164.689 82.2569 164.279 82.4239 163.927L117.624 91.2387C117.698 91.0627 117.828 90.9259 117.995 90.8476L151.747 72.9739C151.989 72.837 152.267 72.8565 152.508 72.9739C152.749 73.1108 152.916 73.3454 152.953 73.6192L161.118 124.033C161.174 124.425 160.988 124.816 160.654 124.972L83.5372 165.1C83.4259 165.198 83.296 165.237 83.1661 165.237ZM118.997 92.3339L85.0773 162.362L159.355 123.701L151.488 75.125L118.997 92.3339Z" fill="white"/>
<path d="M45.888 147.872C45.721 147.872 45.554 147.813 45.4056 147.715L1.07633 114.823C0.798 114.627 0.668107 114.275 0.723773 113.923L18.6484 12.7428C18.7041 12.4299 18.9268 12.1561 19.2237 12.0583C19.5206 11.9605 19.836 12.0388 20.0772 12.2734L81.9601 75.1641C82.2384 75.4379 82.294 75.8681 82.127 76.2201L46.6302 147.383C46.5189 147.617 46.3148 147.774 46.0736 147.833C46.0179 147.852 45.9437 147.872 45.888 147.872ZM2.48657 113.689L45.5725 145.662L80.3086 75.9854L20.003 14.6983L2.48657 113.689Z" fill="white"/>
<path d="M118.366 92.549C118.236 92.549 118.088 92.5099 117.958 92.4316L95.6725 79.525L81.1992 76.6894C80.7353 76.5916 80.4385 76.1419 80.5313 75.653C80.624 75.1641 81.0693 74.8316 81.5146 74.949L96.1179 77.8236C96.2106 77.8432 96.2849 77.8823 96.3777 77.9214L118.774 90.9063C119.182 91.141 119.331 91.6885 119.108 92.1187C118.96 92.3925 118.663 92.549 118.366 92.549Z" fill="white"/>
<path d="M83.1661 165.237C82.962 165.237 82.7765 165.159 82.6095 165.022L62.551 146.874L45.9251 147.872C45.4241 147.93 45.0716 147.52 45.0345 147.031C45.0159 146.542 45.3685 146.112 45.8324 146.092L62.7922 145.075C62.9777 145.056 63.219 145.134 63.386 145.29L83.7043 163.673C84.0569 163.985 84.094 164.553 83.7971 164.924C83.6301 165.139 83.4073 165.237 83.1661 165.237Z" fill="white"/>
<path d="M62.8478 146.855C62.7179 146.855 62.5881 146.816 62.4582 146.757C62.05 146.522 61.883 145.994 62.1056 145.564L95.2272 78.2734C95.32 78.0974 95.4684 77.941 95.654 77.8628L128.293 63.1961C128.72 63.0005 129.221 63.2156 129.407 63.6654C129.592 64.1152 129.388 64.6432 128.961 64.8387L96.6003 79.3881L63.6272 146.385C63.4416 146.679 63.1447 146.855 62.8478 146.855Z" fill="white"/>
<path d="M152.137 74.6752C152.026 74.6752 151.933 74.6556 151.822 74.6165L128.293 64.8387C128.219 64.7996 128.163 64.7605 128.089 64.7214L49.9703 2.96497L35.2929 19.0983C35.0702 19.3525 34.7177 19.4503 34.4022 19.3134L19.2052 13.7401C18.7599 13.5836 18.5372 13.0752 18.6856 12.6059C18.8341 12.1365 19.3165 11.8823 19.7619 12.0583L34.4578 17.4361L49.2837 1.1463C49.5806 0.813859 50.0631 0.774749 50.3971 1.04853L129.036 63.1961L152.453 72.9347C152.879 73.1107 153.102 73.6388 152.935 74.0885C152.787 74.4601 152.471 74.6752 152.137 74.6752Z" fill="white"/>
<path d="M95.9695 79.5641C95.7654 79.5641 95.5613 79.4859 95.3943 79.3294L34.1052 19.1179C33.7712 18.7854 33.7527 18.2183 34.0682 17.8663C34.3836 17.5143 34.9216 17.4752 35.2556 17.8272L96.5447 78.0388C96.8787 78.3712 96.8972 78.9383 96.5817 79.2903C96.4147 79.4859 96.1922 79.5641 95.9695 79.5641Z" fill="white"/>
<path d="M52.9206 147.011C52.8464 147.011 52.7536 146.992 52.6794 146.933C52.4938 146.796 52.4381 146.522 52.568 146.307L90.7924 86.0174L51.6031 136.393C51.4547 136.588 51.1949 136.608 51.0093 136.451C50.8238 136.295 50.8053 136.021 50.9537 135.825L95.6169 78.3907C95.7654 78.2147 96.0066 78.1756 96.1922 78.3125C96.3777 78.4494 96.4148 78.7232 96.2849 78.9187L53.2546 146.796C53.1989 146.933 53.069 147.011 52.9206 147.011Z" fill="white"/>
<path d="M58.8399 146.64C58.7657 146.64 58.6915 146.62 58.6358 146.581C58.4317 146.464 58.3574 146.19 58.4873 145.975L94.1882 81.0503L64.8333 109.914C64.6663 110.09 64.3879 110.071 64.2395 109.895C64.0725 109.719 64.0911 109.425 64.2581 109.269L95.6912 78.3712C95.8396 78.2147 96.0808 78.2148 96.2478 78.3516C96.4148 78.4885 96.4519 78.7232 96.3592 78.9187L59.248 146.444C59.1367 146.561 58.9883 146.64 58.8399 146.64Z" fill="white"/>
<path d="M73.6285 91.7668C73.4801 91.7668 73.3317 91.6885 73.2575 91.5321C73.1462 91.317 73.2203 91.0432 73.4244 90.9259L93.2047 79.7401L78.0633 83.045C77.8221 83.1036 77.618 82.9472 77.5623 82.693C77.5066 82.4583 77.6552 82.2236 77.8964 82.165L95.8952 78.2343C96.0993 78.1952 96.3034 78.3125 96.3776 78.5081C96.4519 78.7232 96.3591 78.9579 96.1736 79.0556L73.8327 91.6885C73.7585 91.7472 73.7027 91.7668 73.6285 91.7668Z" fill="white"/>
<path d="M151.488 129.235C151.395 129.235 151.321 129.216 151.246 129.157L113.523 101.545C113.337 101.408 113.282 101.153 113.393 100.958C113.504 100.762 113.746 100.684 113.931 100.782L160.469 123.818C160.673 123.916 160.765 124.19 160.673 124.405C160.58 124.62 160.32 124.718 160.116 124.62L118.125 103.833L151.729 128.433C151.914 128.57 151.97 128.844 151.84 129.059C151.747 129.177 151.618 129.235 151.488 129.235Z" fill="white"/>
<path d="M134.361 138.153C134.213 138.153 134.083 138.074 133.99 137.937L113.375 101.427C113.263 101.232 113.3 100.977 113.486 100.841C113.653 100.704 113.894 100.723 114.043 100.88L143.379 132.423C143.546 132.599 143.546 132.873 143.379 133.049C143.212 133.225 142.952 133.225 142.785 133.049L115.917 104.145L134.732 137.468C134.843 137.683 134.788 137.957 134.584 138.074C134.509 138.133 134.435 138.153 134.361 138.153Z" fill="white"/>
<path d="M119.09 146.092C118.885 146.092 118.7 145.936 118.663 145.701L113.319 101.232C113.3 100.997 113.43 100.801 113.634 100.743C113.857 100.684 114.061 100.821 114.135 101.036L126.976 141.594C127.05 141.829 126.939 142.083 126.716 142.161C126.493 142.24 126.252 142.103 126.178 141.888L114.692 105.612L119.498 145.603C119.535 145.838 119.368 146.073 119.127 146.092C119.127 146.092 119.108 146.092 119.09 146.092Z" fill="white"/>
<path d="M104.375 153.758C104.357 153.758 104.32 153.758 104.301 153.758C104.078 153.719 103.911 153.484 103.967 153.23L113.356 101.095C113.393 100.86 113.56 100.704 113.82 100.743C114.043 100.762 114.21 100.958 114.191 101.193L113.022 149.045C113.022 149.299 112.781 149.514 112.595 149.475C112.354 149.475 112.187 149.26 112.187 149.025L113.226 106.668L104.802 153.406C104.746 153.601 104.579 153.758 104.375 153.758Z" fill="white"/>
<path d="M89.1967 161.658C89.1411 161.658 89.0855 161.639 89.0298 161.619C88.8071 161.521 88.7144 161.267 88.8071 161.033L113.375 101.017C113.467 100.801 113.69 100.684 113.913 100.782C114.117 100.86 114.228 101.114 114.173 101.329L96.7303 157.649C96.6561 157.884 96.4149 158.001 96.1922 157.943C95.9695 157.865 95.8582 157.61 95.9138 157.376L110.498 110.286L89.5864 161.404C89.5122 161.541 89.3637 161.658 89.1967 161.658Z" fill="white"/>
<path d="M155.978 122.528C155.83 122.528 155.681 122.449 155.607 122.293L135.808 82.4583C135.697 82.2432 135.771 81.9694 135.994 81.8521C136.198 81.7347 136.458 81.813 136.569 82.0476L154.401 117.913L143.397 78.3516C143.323 78.117 143.453 77.8627 143.676 77.8041C143.898 77.7454 144.14 77.8628 144.195 78.117L156.386 121.98C156.442 122.195 156.331 122.43 156.145 122.508C156.089 122.508 156.034 122.528 155.978 122.528Z" fill="white"/>
<path d="M155.978 122.528C155.755 122.528 155.588 122.352 155.551 122.137L150.17 74.6556C150.133 74.4014 150.3 74.1863 150.541 74.1668C150.82 74.1668 150.987 74.3036 151.005 74.5579L156.071 119.281L157.704 110.775C157.741 110.54 157.982 110.364 158.205 110.423C158.427 110.462 158.576 110.697 158.539 110.951L156.386 122.176C156.349 122.371 156.182 122.528 155.978 122.528Z" fill="white"/>
<path d="M155.978 122.528C155.885 122.528 155.774 122.489 155.7 122.41L121.446 90.2219C121.279 90.0654 121.261 89.7721 121.409 89.5961C121.558 89.4201 121.836 89.4005 122.003 89.557L152.842 118.538L129.035 86.1152C128.887 85.9196 128.924 85.6459 129.11 85.4894C129.295 85.333 129.555 85.3721 129.703 85.5676L156.312 121.804C156.442 121.98 156.423 122.254 156.275 122.41C156.182 122.489 156.089 122.528 155.978 122.528Z" fill="white"/>
<path d="M155.477 122.058C155.403 122.058 155.329 122.039 155.255 121.98L116.269 95.893C116.065 95.7561 116.009 95.4823 116.139 95.2867C116.269 95.0716 116.529 95.013 116.715 95.1498L155.7 121.237C155.904 121.374 155.96 121.648 155.83 121.843C155.756 121.98 155.626 122.058 155.477 122.058Z" fill="white"/>
</svg>
