<svg width="130" height="129" viewBox="0 0 130 129" fill="none" xmlns="http://www.w3.org/2000/svg">
<path d="M68.49 77.8053C68.205 77.8053 67.95 77.6318 67.845 77.332C67.815 77.2531 67.7849 77.1743 67.7549 77.0954C67.5599 76.5905 67.365 76.1171 67.17 75.6596C66.3 73.6558 65.265 71.7309 64.065 69.9322C63.855 69.6009 63.93 69.1591 64.23 68.9382C64.545 68.7173 64.965 68.7962 65.175 69.1118C66.42 70.9893 67.515 72.9774 68.4 75.06C68.61 75.5334 68.82 76.0383 69 76.5431C69.03 76.622 69.075 76.7324 69.12 76.8587C69.255 77.2373 69.06 77.6476 68.715 77.7738C68.655 77.7896 68.565 77.8053 68.49 77.8053Z" fill="white"/>
<path d="M35.82 128.357C16.065 128.357 0 111.459 0 90.68C0 71.0998 13.95 54.9749 32.46 53.1763C32.475 53.1763 32.49 53.1763 32.505 53.1763C32.55 53.1763 32.595 53.1605 32.64 53.1605C33.015 53.1605 33.315 53.476 33.315 53.8862C33.315 54.2649 33.0301 54.5805 32.6851 54.5962C32.6701 54.5962 32.67 54.5962 32.655 54.5962C32.64 54.5962 32.6101 54.5962 32.5951 54.5962C14.7901 56.316 1.35004 71.8256 1.35004 90.68C1.35004 110.67 16.8 126.922 35.805 126.922C47.025 126.922 57.585 121.131 64.035 111.459C64.065 111.428 64.095 111.38 64.125 111.349C64.5 110.954 65.295 111.254 65.295 111.854C65.295 111.996 65.25 112.122 65.19 112.232C65.175 112.264 65.1451 112.311 65.1151 112.343C58.4251 122.362 47.475 128.357 35.82 128.357Z" fill="white"/>
<path d="M93.42 128.357C81.765 128.357 70.815 122.362 64.11 112.327C64.095 112.296 64.065 112.28 64.05 112.248C63.975 112.138 63.93 111.996 63.93 111.838C63.93 111.238 64.725 110.939 65.085 111.333C65.115 111.365 65.145 111.412 65.175 111.444C71.625 121.131 82.17 126.906 93.405 126.906C112.395 126.906 127.86 110.655 127.86 90.6642C127.86 71.8098 114.42 56.2844 96.585 54.5804C96.57 54.5804 96.5551 54.5804 96.5251 54.5804C96.2401 54.5804 95.985 54.3911 95.88 54.1071C95.76 53.7285 95.94 53.3182 96.3 53.192C96.405 53.1604 96.555 53.1447 96.675 53.1604C96.72 53.1604 96.75 53.1605 96.78 53.1762C115.29 54.9907 129.24 71.0998 129.24 90.68C129.24 111.459 113.175 128.357 93.42 128.357Z" fill="white"/>
<path d="M60.75 77.6949C60.69 77.6949 60.63 77.6791 60.57 77.6633C60.225 77.5371 60 77.2215 60.12 76.8587C60.15 76.764 60.195 76.6693 60.225 76.5747C60.39 76.1013 60.615 75.5807 60.84 75.0442C61.74 72.9773 62.82 70.9735 64.065 69.1118C64.29 68.7804 64.7101 68.7173 65.0101 68.9382C65.3101 69.1591 65.385 69.6167 65.175 69.9322C63.975 71.7309 62.94 73.6558 62.07 75.6438C61.845 76.1487 61.6501 76.6378 61.4551 77.1427C61.3501 77.4582 61.05 77.6949 60.75 77.6949Z" fill="white"/>
<path d="M96.57 54.6751C96.465 54.6751 96.375 54.6594 96.285 54.612C95.94 54.4385 95.805 54.0282 95.955 53.6654L95.9701 53.6496C95.9851 53.5549 96.015 53.5076 96.045 53.4602C98.055 48.7742 99.075 43.7727 99.075 38.566C99.075 18.5756 83.625 2.32446 64.62 2.32446C45.615 2.32446 30.165 18.5756 30.165 38.566C30.165 43.7569 31.185 48.7584 33.195 53.4444C33.21 53.476 33.2251 53.5076 33.2401 53.5391C33.3901 53.8073 33.345 54.1702 33.12 54.3911C32.85 54.6751 32.415 54.6751 32.16 54.3911C32.115 54.3438 32.07 54.2807 32.04 54.2176C32.025 54.186 31.965 54.0756 31.95 54.044C29.85 49.1529 28.8 43.9462 28.8 38.566C28.8 17.7867 44.865 0.888672 64.62 0.888672C84.375 0.888672 100.44 17.7867 100.44 38.566C100.44 44.0093 99.36 49.2476 97.245 54.1545C97.245 54.1702 97.23 54.186 97.23 54.2018C97.215 54.2334 97.215 54.2649 97.2 54.2807C97.065 54.5173 96.825 54.6751 96.57 54.6751ZM33.285 53.6338C33.3 53.6969 33.315 53.7758 33.315 53.8389C33.315 53.76 33.3 53.6969 33.285 53.6338Z" fill="white"/>
<path d="M70.125 75.77C69.945 75.77 69.78 75.7069 69.645 75.5649C69.375 75.2809 69.375 74.8233 69.645 74.5551C69.915 74.2711 70.35 74.2711 70.62 74.5551C70.89 74.8391 70.89 75.2809 70.62 75.5649C70.47 75.7069 70.29 75.77 70.125 75.77Z" fill="white"/>
<path d="M64.62 76.2118C63.525 76.2118 62.4449 76.1645 61.3949 76.054C61.0349 76.0225 60.675 75.9909 60.3 75.9436C59.925 75.8963 59.6549 75.5491 59.6999 75.1547C59.7449 74.7603 60.0749 74.492 60.4499 74.5236C60.7949 74.5709 61.14 74.6025 61.5 74.634C63.54 74.8391 65.7 74.8391 67.725 74.634C68.1 74.6025 68.43 74.8865 68.475 75.2809C68.505 75.6753 68.2349 76.0225 67.8599 76.0698C66.8099 76.1645 65.715 76.2118 64.62 76.2118Z" fill="white"/>
<path d="M64.62 86.2149C64.47 86.2149 64.335 86.1675 64.2 86.0729C63.9 85.8362 63.84 85.3787 64.08 85.0631C65.1 83.6747 65.955 82.16 66.63 80.5822C67.14 79.3674 67.545 78.1367 67.83 76.9218C67.875 76.764 67.905 76.6063 67.935 76.4485C68.025 76.0067 68.115 75.5807 68.175 75.1389C68.37 73.924 68.475 72.6618 68.475 71.3838C68.475 70.8789 68.46 70.3898 68.43 69.8849C68.37 68.8436 68.235 67.8338 68.055 66.8714C67.935 66.256 67.8 65.6564 67.635 65.0727C66.9 62.4062 65.7 59.9291 64.08 57.7045C61.635 54.3596 58.38 51.8036 54.645 50.3205C52.23 49.358 49.695 48.8847 47.1 48.8847C41.97 48.8847 36.99 50.8253 33.105 54.3753C33.09 54.3911 33.06 54.4227 33.045 54.4385C32.775 54.7225 32.34 54.7225 32.07 54.4385C31.8 54.1545 31.8 53.7127 32.07 53.4287C32.1 53.3971 32.175 53.334 32.22 53.3025C36.45 49.5 41.685 47.4647 47.115 47.4647C49.875 47.4647 52.575 47.9853 55.14 48.9951C59.115 50.5729 62.58 53.2867 65.175 56.8525C66.9 59.2191 68.175 61.854 68.955 64.694C69.135 65.3251 69.285 65.9562 69.405 66.6031C69.6 67.6287 69.735 68.7016 69.81 69.806C69.84 70.3267 69.855 70.8631 69.855 71.3996C69.855 72.7565 69.75 74.0976 69.54 75.3756C69.48 75.8331 69.375 76.3064 69.285 76.764C69.255 76.9376 69.21 77.1111 69.165 77.2847C68.865 78.5627 68.43 79.888 67.89 81.166C67.17 82.8542 66.255 84.4636 65.175 85.9309C65.025 86.1044 64.83 86.2149 64.62 86.2149Z" fill="white"/>
<path d="M64.62 112.58C64.245 112.58 63.93 112.264 63.93 111.854V85.7258C62.895 84.29 62.025 82.728 61.335 81.0871C60.81 79.8565 60.39 78.5627 60.075 77.2531C60.045 77.1742 60.015 77.0323 59.985 76.8903C59.865 76.4169 59.7601 75.8805 59.6851 75.344C59.4751 74.0818 59.37 72.7407 59.37 71.3838C59.37 70.8473 59.385 70.3109 59.415 69.7903C59.49 68.67 59.625 67.5971 59.82 66.5874C59.955 65.9405 60.09 65.2936 60.27 64.6625C61.05 61.8225 62.325 59.1876 64.05 56.8209C66.615 53.3025 70.035 50.6045 73.95 49.0109C76.56 47.9538 79.305 47.4331 82.11 47.4331C87.54 47.4331 92.805 49.4842 96.93 53.2078C97.005 53.2551 97.095 53.3498 97.14 53.4287C97.395 53.7285 97.365 54.1702 97.08 54.4385C96.795 54.7067 96.36 54.6751 96.12 54.3753C92.175 50.8096 87.225 48.8847 82.11 48.8847C79.47 48.8847 76.89 49.3896 74.43 50.3678C70.755 51.8509 67.53 54.3911 65.13 57.7045C63.51 59.9291 62.31 62.4062 61.575 65.0727C61.41 65.6722 61.275 66.2718 61.155 66.8714C60.975 67.818 60.84 68.8436 60.765 69.8849C60.735 70.374 60.7201 70.8789 60.7201 71.3838C60.7201 72.6618 60.825 73.9083 61.02 75.1231C61.095 75.628 61.2 76.1171 61.305 76.5905C61.32 76.7009 61.3351 76.7798 61.3651 76.8587C61.6801 78.1524 62.07 79.3673 62.565 80.5191C63.24 82.1285 64.095 83.6431 65.13 85.0631C65.22 85.1894 65.265 85.3471 65.265 85.5049V111.87C65.295 112.248 64.995 112.58 64.62 112.58Z" fill="white"/>
<path d="M64.635 112.58C64.26 112.58 63.945 112.264 63.945 111.854C63.945 111.522 64.155 111.238 64.44 111.16C71.76 108.651 77.25 102.182 78.78 94.2615C79.065 92.81 79.215 91.2954 79.215 89.7649C79.215 87.1931 78.81 84.6845 78 82.2705C77.055 79.4305 75.585 76.8587 73.635 74.6024C73.08 73.9556 72.48 73.3403 71.835 72.7565C71.55 72.4883 71.5201 72.0465 71.7751 71.7467C72.0301 71.4469 72.465 71.4153 72.735 71.6836C73.41 72.2989 74.055 72.9616 74.64 73.64C76.71 76.0225 78.2701 78.7678 79.2751 81.7971C80.1301 84.3531 80.565 87.0354 80.565 89.7649C80.565 91.39 80.415 92.9993 80.1 94.5613C78.48 102.955 72.66 109.834 64.905 112.516C64.83 112.564 64.74 112.58 64.635 112.58Z" fill="white"/>
<path d="M64.62 68.4018C64.545 68.4018 64.485 68.386 64.41 68.3702C63.87 68.1809 63.3301 68.0231 62.7751 67.8811C62.0251 67.6918 61.2451 67.5498 60.4201 67.4393C58.3951 67.1869 56.2651 67.2342 54.3301 67.5656C53.9701 67.6445 53.61 67.3762 53.55 66.9818C53.49 66.5874 53.73 66.2244 54.105 66.1613C56.175 65.7827 58.4401 65.7353 60.6001 66.0193C61.4701 66.1298 62.31 66.2876 63.105 66.4927C63.69 66.6347 64.2601 66.8082 64.8301 66.9975C65.1901 67.1238 65.385 67.5182 65.265 67.8969C65.175 68.2124 64.905 68.4018 64.62 68.4018Z" fill="white"/>
<path d="M64.635 112.58C64.53 112.58 64.4401 112.564 64.3651 112.516C56.5951 109.85 50.775 102.971 49.14 94.5613C48.84 92.9993 48.69 91.39 48.69 89.7649C48.69 87.0511 49.125 84.3689 49.965 81.8287C50.985 78.7836 52.5601 76.0382 54.6151 73.6558C55.2001 72.9773 55.815 72.362 56.415 71.7782C57.435 70.8315 58.575 69.9638 59.76 69.2065C60.075 69.0014 60.51 69.1118 60.69 69.4589C60.885 69.806 60.78 70.2478 60.45 70.4371C59.325 71.1471 58.26 71.9518 57.3 72.8511C56.73 73.3876 56.145 73.9871 55.59 74.6182C53.655 76.8587 52.185 79.4462 51.225 82.302C50.43 84.7002 50.0251 87.2089 50.0251 89.7649C50.0251 91.2954 50.175 92.81 50.46 94.2615C51.99 102.182 57.495 108.667 64.815 111.16C64.935 111.191 65.0251 111.27 65.1151 111.365C65.2351 111.491 65.3101 111.664 65.3101 111.854C65.3101 112.264 65.01 112.58 64.635 112.58Z" fill="white"/>
<path d="M64.62 68.4018C64.335 68.4018 64.0651 68.2125 63.9751 67.8969C63.8551 67.5182 64.065 67.108 64.425 66.9976C64.995 66.8082 65.5651 66.6347 66.1501 66.4927C66.9451 66.2876 67.7851 66.1298 68.6551 66.0194C70.7551 65.7511 72.945 65.7827 75 66.1298C75.375 66.1929 75.63 66.5558 75.57 66.9502C75.51 67.3447 75.15 67.6129 74.79 67.5498C72.855 67.2342 70.8 67.1869 68.82 67.4393C68.01 67.5498 67.215 67.6918 66.48 67.8811C65.925 68.0231 65.3851 68.1809 64.8451 68.3703C64.7551 68.3861 64.695 68.4018 64.62 68.4018Z" fill="white"/>
<path d="M54.0601 83.0751C52.8451 83.0751 51.66 82.9805 50.505 82.7911C46.305 82.0969 42.375 80.172 39.135 77.2216C34.155 72.6618 31.29 66.0667 31.29 59.1403C31.29 57.3258 31.485 55.5272 31.86 53.7758C31.86 53.76 31.86 53.7442 31.875 53.7284C31.905 53.6022 31.965 53.476 32.055 53.3971L32.385 53.7442H32.565L33.225 53.9336C33.225 53.9493 33.21 53.9809 33.21 53.9967C33.21 54.0282 33.21 54.0598 33.195 54.0913C32.835 55.7322 32.655 57.4205 32.655 59.1403C32.655 65.6565 35.34 71.8571 40.02 76.1329C43.065 78.9098 46.755 80.7085 50.7 81.3711C53.445 81.8287 56.43 81.7025 59.175 80.9925C60.015 80.7716 60.855 80.5033 61.725 80.1562C62.07 80.0142 62.475 80.2036 62.61 80.5665C62.745 80.9293 62.5651 81.3553 62.2201 81.4973C61.2901 81.876 60.405 82.16 59.505 82.3967C57.75 82.8385 55.9051 83.0751 54.0601 83.0751Z" fill="white"/>
<path d="M75.045 83.0751C73.245 83.0751 71.475 82.8542 69.75 82.4125C68.85 82.1916 67.935 81.8918 67.02 81.5447C66.66 81.4027 66.48 80.9924 66.615 80.6138C66.75 80.2351 67.14 80.0458 67.5 80.1878C68.355 80.5191 69.225 80.8031 70.065 81.0082C72.84 81.7182 75.855 81.8129 78.51 81.3395C82.455 80.6611 86.13 78.8309 89.16 76.054C93.78 71.7782 96.435 65.6091 96.435 59.1402C96.435 57.452 96.255 55.7638 95.895 54.1229C95.895 54.1071 95.895 54.1071 95.895 54.0913C95.88 54.0598 95.88 54.0124 95.865 53.9809C95.73 53.618 95.9099 53.2078 96.2549 53.0658C96.6149 52.9238 97.005 53.1289 97.14 53.4918C97.155 53.5233 97.1849 53.6338 97.1999 53.7127C97.1999 53.7442 97.215 53.7758 97.215 53.8073C97.59 55.5429 97.785 57.3416 97.785 59.1402C97.785 66.0194 94.965 72.5829 90.045 77.1427C86.82 80.1089 82.905 82.0495 78.72 82.7753C77.565 82.9647 76.32 83.0751 75.045 83.0751Z" fill="white"/>
<path d="M68.385 77.5056C68.205 77.5056 68.01 77.4267 67.89 77.2689C67.635 76.9849 67.65 76.5274 67.935 76.2592C68.01 76.196 68.07 76.1329 68.145 76.0698C68.685 75.5807 69.1649 75.0758 69.6299 74.5551C70.3949 73.7031 71.085 72.788 71.715 71.8256C72.78 70.2004 73.62 68.4334 74.25 66.5874C74.31 66.4296 74.415 66.2876 74.55 66.2087L96.21 53.2551C96.525 53.0658 96.96 53.1763 97.14 53.5234C97.32 53.8705 97.215 54.3122 96.885 54.5016L75.45 67.3289C74.805 69.2065 73.92 70.9894 72.855 72.646C72.18 73.6716 71.445 74.6498 70.635 75.5491C70.125 76.1171 69.615 76.6378 69.075 77.1427L68.865 77.332C68.715 77.4425 68.55 77.5056 68.385 77.5056Z" fill="white"/>
<path d="M60.75 77.5845C60.645 77.5845 60.525 77.5529 60.42 77.4582C60.405 77.4424 60.285 77.332 60.27 77.3162C59.64 76.7482 59.04 76.1487 58.455 75.5018C57.705 74.6656 56.985 73.7189 56.31 72.7249C55.215 71.0682 54.33 69.2538 53.67 67.3446L32.205 54.5016C31.875 54.3122 31.77 53.8705 31.95 53.5233C32.13 53.1762 32.55 53.05 32.88 53.2551L54.555 66.2244C54.705 66.3033 54.81 66.4453 54.855 66.6031C55.485 68.4806 56.355 70.2635 57.42 71.8887C58.05 72.8353 58.725 73.7189 59.43 74.5078C59.985 75.1231 60.54 75.6911 61.11 76.196C61.395 76.4484 61.5 76.9533 61.275 77.2531C61.14 77.474 60.945 77.5845 60.75 77.5845Z" fill="white"/>
<path d="M7.01998 112.217C6.91498 112.217 6.79498 112.154 6.73498 112.059C6.62998 111.885 6.67499 111.664 6.83999 111.57L50.43 81.7814C50.58 81.6709 50.805 81.7182 50.895 81.8918C51 82.0653 50.955 82.2862 50.79 82.3809L7.19997 112.169C7.15497 112.201 7.07998 112.217 7.01998 112.217Z" fill="white"/>
<path d="M64.62 57.6256C64.425 57.6256 64.2751 57.4678 64.2751 57.2627V1.5829C64.2751 1.37779 64.425 1.21999 64.62 1.21999C64.815 1.21999 64.965 1.37779 64.965 1.5829V57.2627C64.965 57.4678 64.815 57.6256 64.62 57.6256Z" fill="white"/>
<path d="M122.22 112.217C122.16 112.217 122.085 112.201 122.04 112.154L78.4351 82.3494C78.2701 82.2389 78.225 82.018 78.33 81.8602C78.435 81.6867 78.645 81.6551 78.795 81.7498L122.4 111.57C122.565 111.68 122.61 111.901 122.505 112.059C122.445 112.169 122.34 112.217 122.22 112.217Z" fill="white"/>
</svg>
