<svg width="86" height="86" viewBox="0 0 86 86" fill="none" xmlns="http://www.w3.org/2000/svg">
<path d="M13.6891 26.0774L43 9.1547L72.3109 26.0774V59.9226L43 76.8453L13.6891 59.9226V26.0774Z" stroke="url(#paint0_linear_1_213)" stroke-width="2"/>
<g filter="url(#filter0_f_1_213)">
<rect x="30" y="30" width="26" height="26" fill="#FFF500"/>
</g>
<path d="M9.62117 36.576C11.2052 35.676 11.7452 35.352 12.9332 34.956C13.5452 34.776 14.1212 34.668 14.6972 34.668C16.6052 34.668 18.0092 35.964 18.0092 37.836C18.0092 39.096 17.1812 40.572 15.4892 42.264L7.71317 50.04V54H24.4892V48.96H16.0652L20.6372 44.388C23.0132 42.012 24.2012 39.528 24.2012 36.936C24.2012 34.74 23.4452 32.904 21.8972 31.5C20.3852 30.096 18.4052 29.376 15.9932 29.376C13.1852 29.376 10.2692 30.24 7.24517 31.932L9.62117 36.576ZM30.1474 51.156C31.8394 53.352 34.2154 54.432 37.3114 54.432C40.4074 54.432 42.7834 53.352 44.4394 51.156C46.1314 48.96 46.9594 45.9 46.9594 41.94C46.9594 37.944 46.1314 34.884 44.4394 32.688C42.7834 30.492 40.4074 29.376 37.3114 29.376C34.2154 29.376 31.8394 30.492 30.1474 32.688C28.4914 34.884 27.6634 37.944 27.6634 41.94C27.6634 45.9 28.4914 48.96 30.1474 51.156ZM34.5754 36.468C35.2234 35.172 36.1234 34.524 37.3114 34.524C38.4994 34.524 39.3994 35.172 40.0474 36.468C40.6954 37.728 41.0194 39.564 41.0194 41.904C41.0194 44.244 40.6954 46.08 40.0474 47.376C39.3994 48.636 38.4994 49.284 37.3114 49.284C36.1234 49.284 35.2234 48.636 34.5754 47.376C33.9274 46.08 33.6034 44.244 33.6034 41.904C33.6034 39.564 33.9274 37.728 34.5754 36.468ZM55.4255 29.376C53.4455 29.376 51.7895 29.988 50.5295 31.212C49.2695 32.4 48.6575 33.948 48.6575 35.856C48.6575 37.764 49.2695 39.312 50.5295 40.536C51.7895 41.724 53.4455 42.336 55.4255 42.336C57.4055 42.336 59.0255 41.724 60.2855 40.536C61.5815 39.312 62.2295 37.764 62.2295 35.856C62.2295 33.948 61.5815 32.4 60.2855 31.212C59.0255 29.988 57.4055 29.376 55.4255 29.376ZM55.7495 55.188L73.8935 30.996L70.7255 28.62L52.5815 52.812L55.7495 55.188ZM55.4255 38.736C54.1295 38.736 53.3015 37.584 53.3015 35.856C53.3015 34.128 54.1295 32.976 55.4255 32.976C56.7215 32.976 57.5855 34.128 57.5855 35.856C57.5855 37.584 56.7215 38.736 55.4255 38.736ZM71.0495 41.472C69.0695 41.472 67.4135 42.084 66.1535 43.308C64.8935 44.496 64.2455 46.044 64.2455 47.952C64.2455 49.86 64.8935 51.408 66.1535 52.632C67.4135 53.82 69.0695 54.432 71.0495 54.432C72.9935 54.432 74.6135 53.82 75.8735 52.632C77.1695 51.408 77.8175 49.86 77.8175 47.952C77.8175 46.044 77.1695 44.496 75.8735 43.308C74.6135 42.084 72.9935 41.472 71.0495 41.472ZM71.0495 50.832C69.7535 50.832 68.8895 49.68 68.8895 47.952C68.8895 46.224 69.7535 45.072 71.0495 45.072C72.3095 45.072 73.1735 46.224 73.1735 47.952C73.1735 49.68 72.3095 50.832 71.0495 50.832Z" fill="url(#paint1_linear_1_213)"/>
<defs>
<filter id="filter0_f_1_213" x="0" y="0" width="86" height="86" filterUnits="userSpaceOnUse" color-interpolation-filters="sRGB">
<feFlood flood-opacity="0" result="BackgroundImageFix"/>
<feBlend mode="normal" in="SourceGraphic" in2="BackgroundImageFix" result="shape"/>
<feGaussianBlur stdDeviation="15" result="effect1_foregroundBlur_1_213"/>
</filter>
<linearGradient id="paint0_linear_1_213" x1="78" y1="43" x2="16.2895" y2="43" gradientUnits="userSpaceOnUse">
<stop stop-color="#FFF500"/>
<stop offset="1" stop-opacity="0"/>
</linearGradient>
<linearGradient id="paint1_linear_1_213" x1="10.2115" y1="30.5" x2="63.9842" y2="69.0648" gradientUnits="userSpaceOnUse">
<stop stop-color="#FBFFFE"/>
<stop offset="0.510417" stop-color="#FFF500"/>
<stop offset="1" stop-color="#FBFFFE"/>
</linearGradient>
</defs>
</svg>
