<svg width="86" height="86" viewBox="0 0 86 86" fill="none" xmlns="http://www.w3.org/2000/svg">
<path d="M10.6891 26.0774L40 9.1547L69.3109 26.0774V59.9226L40 76.8453L10.6891 59.9226V26.0774Z" stroke="url(#paint0_linear_1_181)" stroke-width="2"/>
<g filter="url(#filter0_f_1_181)">
<rect x="30" y="30" width="26" height="26" fill="#B0B0B0"/>
</g>
<path d="M9.30517 38.628L14.1652 35.892V54H20.5012V29.808H15.2092L7.18117 34.38L9.30517 38.628ZM27.2394 52.164C29.7234 53.676 32.3514 54.432 35.1954 54.432C37.9314 54.432 40.1634 53.676 41.9274 52.164C43.6914 50.652 44.5554 48.744 44.5554 46.44C44.5554 44.1 43.7634 42.264 42.2154 40.86C40.6674 39.456 38.5794 38.736 35.9874 38.736C35.3034 38.736 34.8354 38.736 34.5114 38.772V34.848H43.6914V29.808H28.9674V43.668C30.7314 43.272 32.3514 43.092 33.8994 43.092C36.7434 43.092 38.3634 44.28 38.3634 46.332C38.3634 48.168 36.9594 49.284 34.6914 49.284C33.1434 49.284 31.4514 48.708 29.6514 47.52L27.2394 52.164ZM54.4255 29.376C52.4455 29.376 50.7895 29.988 49.5295 31.212C48.2695 32.4 47.6575 33.948 47.6575 35.856C47.6575 37.764 48.2695 39.312 49.5295 40.536C50.7895 41.724 52.4455 42.336 54.4255 42.336C56.4055 42.336 58.0255 41.724 59.2855 40.536C60.5815 39.312 61.2295 37.764 61.2295 35.856C61.2295 33.948 60.5815 32.4 59.2855 31.212C58.0255 29.988 56.4055 29.376 54.4255 29.376ZM54.7495 55.188L72.8935 30.996L69.7255 28.62L51.5815 52.812L54.7495 55.188ZM54.4255 38.736C53.1295 38.736 52.3015 37.584 52.3015 35.856C52.3015 34.128 53.1295 32.976 54.4255 32.976C55.7215 32.976 56.5855 34.128 56.5855 35.856C56.5855 37.584 55.7215 38.736 54.4255 38.736ZM70.0495 41.472C68.0695 41.472 66.4135 42.084 65.1535 43.308C63.8935 44.496 63.2455 46.044 63.2455 47.952C63.2455 49.86 63.8935 51.408 65.1535 52.632C66.4135 53.82 68.0695 54.432 70.0495 54.432C71.9935 54.432 73.6135 53.82 74.8735 52.632C76.1695 51.408 76.8175 49.86 76.8175 47.952C76.8175 46.044 76.1695 44.496 74.8735 43.308C73.6135 42.084 71.9935 41.472 70.0495 41.472ZM70.0495 50.832C68.7535 50.832 67.8895 49.68 67.8895 47.952C67.8895 46.224 68.7535 45.072 70.0495 45.072C71.3095 45.072 72.1735 46.224 72.1735 47.952C72.1735 49.68 71.3095 50.832 70.0495 50.832Z" fill="url(#paint1_linear_1_181)"/>
<defs>
<filter id="filter0_f_1_181" x="0" y="0" width="86" height="86" filterUnits="userSpaceOnUse" color-interpolation-filters="sRGB">
<feFlood flood-opacity="0" result="BackgroundImageFix"/>
<feBlend mode="normal" in="SourceGraphic" in2="BackgroundImageFix" result="shape"/>
<feGaussianBlur stdDeviation="15" result="effect1_foregroundBlur_1_181"/>
</filter>
<linearGradient id="paint0_linear_1_181" x1="75" y1="43" x2="13.2895" y2="43" gradientUnits="userSpaceOnUse">
<stop stop-color="#B0B0B0"/>
<stop offset="1" stop-opacity="0"/>
</linearGradient>
<linearGradient id="paint1_linear_1_181" x1="9.21154" y1="30.5" x2="62.9842" y2="69.0648" gradientUnits="userSpaceOnUse">
<stop stop-color="#FBFFFE"/>
<stop offset="0.510417" stop-color="#B0B0B0"/>
<stop offset="1" stop-color="#FBFFFE"/>
</linearGradient>
</defs>
</svg>
