<svg width="86" height="86" viewBox="0 0 86 86" fill="none" xmlns="http://www.w3.org/2000/svg">
<path d="M10.6891 26.0774L40 9.1547L69.3109 26.0774V59.9226L40 76.8453L10.6891 59.9226V26.0774Z" stroke="url(#paint0_linear_1_197)" stroke-width="2"/>
<g filter="url(#filter0_f_1_197)">
<rect x="30" y="30" width="26" height="26" fill="#EA7B14"/>
</g>
<path d="M15.3683 52.164C17.8523 53.676 20.4803 54.432 23.3243 54.432C26.0603 54.432 28.2923 53.676 30.0563 52.164C31.8203 50.652 32.6843 48.744 32.6843 46.44C32.6843 44.1 31.8923 42.264 30.3443 40.86C28.7963 39.456 26.7083 38.736 24.1163 38.736C23.4323 38.736 22.9643 38.736 22.6403 38.772V34.848H31.8203V29.808H17.0963V43.668C18.8603 43.272 20.4803 43.092 22.0283 43.092C24.8723 43.092 26.4923 44.28 26.4923 46.332C26.4923 48.168 25.0883 49.284 22.8203 49.284C21.2723 49.284 19.5803 48.708 17.7803 47.52L15.3683 52.164ZM42.5545 29.376C40.5745 29.376 38.9185 29.988 37.6585 31.212C36.3985 32.4 35.7865 33.948 35.7865 35.856C35.7865 37.764 36.3985 39.312 37.6585 40.536C38.9185 41.724 40.5745 42.336 42.5545 42.336C44.5345 42.336 46.1545 41.724 47.4145 40.536C48.7105 39.312 49.3585 37.764 49.3585 35.856C49.3585 33.948 48.7105 32.4 47.4145 31.212C46.1545 29.988 44.5345 29.376 42.5545 29.376ZM42.8785 55.188L61.0225 30.996L57.8545 28.62L39.7105 52.812L42.8785 55.188ZM42.5545 38.736C41.2585 38.736 40.4305 37.584 40.4305 35.856C40.4305 34.128 41.2585 32.976 42.5545 32.976C43.8505 32.976 44.7145 34.128 44.7145 35.856C44.7145 37.584 43.8505 38.736 42.5545 38.736ZM58.1785 41.472C56.1985 41.472 54.5425 42.084 53.2825 43.308C52.0225 44.496 51.3745 46.044 51.3745 47.952C51.3745 49.86 52.0225 51.408 53.2825 52.632C54.5425 53.82 56.1985 54.432 58.1785 54.432C60.1225 54.432 61.7425 53.82 63.0025 52.632C64.2985 51.408 64.9465 49.86 64.9465 47.952C64.9465 46.044 64.2985 44.496 63.0025 43.308C61.7425 42.084 60.1225 41.472 58.1785 41.472ZM58.1785 50.832C56.8825 50.832 56.0185 49.68 56.0185 47.952C56.0185 46.224 56.8825 45.072 58.1785 45.072C59.4385 45.072 60.3025 46.224 60.3025 47.952C60.3025 49.68 59.4385 50.832 58.1785 50.832Z" fill="url(#paint1_linear_1_197)"/>
<defs>
<filter id="filter0_f_1_197" x="0" y="0" width="86" height="86" filterUnits="userSpaceOnUse" color-interpolation-filters="sRGB">
<feFlood flood-opacity="0" result="BackgroundImageFix"/>
<feBlend mode="normal" in="SourceGraphic" in2="BackgroundImageFix" result="shape"/>
<feGaussianBlur stdDeviation="15" result="effect1_foregroundBlur_1_197"/>
</filter>
<linearGradient id="paint0_linear_1_197" x1="75" y1="43" x2="13.2895" y2="43" gradientUnits="userSpaceOnUse">
<stop stop-color="#EA7B14"/>
<stop offset="1" stop-opacity="0"/>
</linearGradient>
<linearGradient id="paint1_linear_1_197" x1="17" y1="30.5" x2="63" y2="54" gradientUnits="userSpaceOnUse">
<stop stop-color="#FBFFFE"/>
<stop offset="0.510417" stop-color="#EA7B14"/>
<stop offset="1" stop-color="#FBFFFE"/>
</linearGradient>
</defs>
</svg>
