<?xml version="1.0" standalone="no"?>
<!DOCTYPE svg PUBLIC "-//W3C//DTD SVG 1.1//EN" "http://www.w3.org/Graphics/SVG/1.1/DTD/svg11.dtd" >
<svg xmlns="http://www.w3.org/2000/svg">
<metadata>Generated by IcoMoon</metadata>
<defs>
<font id="icons" horiz-adv-x="1024">
<font-face units-per-em="1024" ascent="960" descent="-64" />
<missing-glyph horiz-adv-x="1024" />
<glyph unicode="&#x20;" horiz-adv-x="512" d="" />
<glyph unicode="&#xe900;" glyph-name="javascript" d="M63.5 896.5h897v-897h-897v897zM887 213.4c-6.5 40.9-33.2 75.3-112.2 107.4-27.5 12.9-58.1 21.9-67.2 42.6-3.4 12.3-3.9 19.1-1.7 26.4 5.6 24.1 34.2 31.4 56.6 24.7 14.6-4.5 28-15.7 36.5-33.6 38.6 25.3 38.6 25.3 65.6 42-10.1 15.7-15.1 22.5-21.9 29.2-23.5 26.3-54.9 39.8-105.9 38.6l-26.4-3.3c-25.3-6.2-49.3-19.6-63.9-37.6-42.6-48.3-30.3-132.3 21.3-167.1 51-38.1 125.6-46.5 135.2-82.4 9-43.7-32.5-57.7-73.5-52.7-30.3 6.7-47.1 21.9-65.6 49.9l-68.4-39.3c7.8-17.9 16.8-25.8 30.3-41.4 65-65.6 227.6-62.3 256.8 37.5 1.1 3.4 9 26.4 2.8 61.7l1.6-2.6zM551.3 484.2h-84c0-72.4-0.3-144.4-0.3-217 0-46 2.4-88.3-5.2-101.3-12.3-25.8-44.1-22.5-58.5-17.9-14.8 7.3-22.3 17.4-31 32-2.4 3.9-4.1 7.3-4.7 7.3l-68.2-42c11.4-23.5 28-43.8 49.5-56.7 32-19.1 74.9-25.2 119.9-15.1 29.3 8.4 54.5 25.8 67.7 52.7 19.1 34.8 15 77.4 14.8 125.1 0.4 76.8 0 153.6 0 230.9v2z" />
<glyph unicode="&#xe901;" glyph-name="typescript" d="M94.208 865.792v-835.584h835.584v835.584h-835.584zM729.129 459.94v-0.012c8.012-0.025 17.119-0.436 23.968-1.18 27.892-3.017 49.613-15.051 68.092-37.716 9.202-11.291 12.349-16.23 11.68-18.344-0.432-1.364-6.746-5.886-26.821-19.21-19.72-13.093-26.071-17.015-27.546-17.015-1.497 0-4.614 3.207-9.105 9.366-8.653 11.856-17.486 17.267-31.14 19.071-14.684 1.946-27.857-2.683-34.308-12.059-5.515-8.012-6.349-20.902-1.966-30.269 5.079-10.848 14.27-16.847 49.494-32.291 40.624-17.814 61.211-30.005 76.204-45.138 16.146-16.294 24.326-35.107 26.839-61.719 1.227-12.972-0.272-28.344-3.983-40.843-9.103-30.64-33.669-53.076-69.673-63.635-9.953-2.918-19.214-4.661-28.375-5.333-13.986-1.030-34.003-0.463-46.051 1.29-30.482 4.442-64.893 22.18-82.051 42.291-8.423 9.873-19.177 26.122-19.177 28.979 0 1.38 0.684 2.165 3.391 3.885 8.032 5.104 54.055 31.412 54.948 31.412 0.541 0 2.945-2.832 5.341-6.296 5.429-7.84 18.78-21.314 25.567-25.809 5.544-3.672 12.634-6.619 21.051-8.747 4.821-1.202 7.373-1.417 17.891-1.417 10.748 0.004 12.952 0.184 17.76 1.477 12.718 3.422 22.645 10.506 26.851 19.157 1.843 3.738 1.88 4.205 1.88 13.271v9.4l-2.261 4.485c-5.474 10.867-17.271 18.323-54.569 34.478-17.132 7.422-38.113 17.885-46.305 23.091-18.696 11.88-31.654 25.463-40.157 42.088-8.458 16.534-9.718 22.688-9.738 47.548-0.020 19.462-0.053 19.223 3.975 31.644 3.656 11.272 11.139 23.863 19.401 32.645 16.486 17.525 40.577 28.789 66.367 31.029 3.297 0.313 7.717 0.434 12.524 0.42zM507.208 456.096h0.008c49.67-0.025 78.143-0.197 78.6-0.483 0.86-0.532 0.969-4.856 0.969-32.444v-31.828l-99.127-0.36v-140.724c0-77.4-0.158-141.185-0.373-141.748-0.35-0.948-4.164-1.020-36.413-1.020h-36.018l-0.373 1.454c-0.24 0.799-0.416 64.588-0.42 141.75l-0.012 140.296-99.127 0.356v31.451c0 24.945 0.172 31.625 0.838 32.289 0.682 0.702 25.977 0.883 134.967 0.991 21.012 0.020 39.926 0.031 56.484 0.020z" />
<glyph unicode="&#xe902;" glyph-name="jquery" d="M121.3 676.7c-79.3-113.9-69.5-262-8.8-383 1.4-2.9 2.9-5.7 4.4-8.5 0.9-1.9 1.8-3.7 2.9-5.6 0.5-1 1.1-2.1 1.8-3.1l3-5.7 5.9-9.9c1.1-1.8 2.1-3.6 3.4-5.5 2-3.5 4.5-7 6.6-10.5 1-1.5 1.9-2.9 2.9-4.4 4.1-6.5 8-11.9 12-17.1l-0.4 0.6c2.9-4 5.8-7.9 9-11.8 1-1.4 2.1-2.8 3.2-4.3l8.3-10.1c1-1.1 2-2.5 3.1-3.7 3.7-4.4 7.5-8.7 11.4-13 0-0.1 0.1-0.1 0.2-0.3 4.8-6.1 10-11.5 15.7-16.3l0.2-0.1c3-3.1 6-6.1 9.2-9.1l3.8-3.6c4.1-3.9 8.3-7.8 12.7-11.5 0.1 0 0.1-0.1 0.2-0.1l2.1-1.9c3.8-3.3 7.6-6.6 11.6-9.7l4.7-3.9c3.2-2.5 6.5-5 9.7-7.5l5.1-3.9c3.5-2.6 7.2-5.2 10.7-7.7 1.3-0.9 2.6-1.9 3.9-2.7l1.1-0.9 10.5-6.9 4.5-3c5.5-3.5 11-6.8 16.4-10.1 1.6-0.8 3.1-1.7 4.6-2.5 4-2.3 8.2-4.7 12.3-6.8 2.2-1.3 4.6-2.4 6.9-3.5 2.8-1.6 5.7-3.1 8.7-4.7 0.7-0.2 1.5-0.5 2.2-0.9h-0.1c1.2-0.6 2.4-1.1 3.6-1.8 4.5-2.2 9.2-4.4 14-6.5 0.9-0.4 1.9-0.8 2.8-1.3 5.4-2.4 10.8-4.6 16.3-6.8 1.3-0.4 2.6-1 3.9-1.5 5-1.9 10.2-3.8 15.3-5.7l1.9-0.7c5.7-1.9 11.3-3.8 17.1-5.6 1.3-0.4 2.7-0.9 4.1-1.2 5.9-1.8 11.7-3.9 17.7-5.1 383.1-69.8 494.5 230.3 494.5 230.3-93.9-121.6-259.9-153.7-417.1-118-5.8 1.3-11.7 3.2-17.5 4.9-8.3 2.4-16.6 5-24.7 7.8l3.5-1.1-2.3 0.9c-5.1 1.7-10 3.6-14.9 5.5-1.2 0.5-2.4 1-3.7 1.4l-0.4 0.1c-5.5 2.2-10.8 4.5-16.1 6.8-1.1 0.4-2.1 0.9-3.3 1.3-6.3 2.7-12.5 5.6-18.6 8.6l5.2-2.3c-1.4 0.6-2.6 1.2-3.9 1.9-3.5 1.7-7 3.5-10.4 5.3-2.6 1.2-5.2 2.6-7.7 4l0.8-0.4c-4.2 2.2-8.4 4.7-12.7 7-1.3 0.9-2.7 1.7-4.2 2.5-6.3 3.7-12.6 7.5-18.7 11.5l2.4-1.4c-1.6 1-3.1 2-4.6 3.1l0.2-0.2c-4.2 2.6-8.3 5.3-12.3 8.1l0.7-0.5c-1.3 0.9-2.5 1.8-3.8 2.7-4.8 3.3-8.3 5.9-11.9 8.6l0.9-0.6c-1.6 1.3-3.2 2.5-4.9 3.7-3.3 2.6-6.6 5-9.9 7.8l-4.4 3.5c-4.9 3.9-8.9 7.4-12.9 10.9l0.4-0.4c-0.4 0.4-0.9 0.8-1.3 1.1l-13 11.8-3.7 3.5c-3.1 3.1-6.2 6.1-9.3 9.2l-3.6 3.7c-3.9 3.8-7.6 7.8-11.3 11.8l-0.2 0.3-0.6 0.6c-4 4.4-7.8 8.8-11.7 13.2-1 1.1-1.9 2.4-3 3.6l-8.4 10.3c-3.8 4.8-7.5 9.7-11.2 14.6l-1.5 2.1c-87.2 119.1-118.7 283.3-49 418.1l-62.2-77.8zM367.3 772.6c-57.5-82.5-54.2-192.8-9.5-280 8.3-16.4 16.7-30.2 26-43.3l-0.7 1.1c8.6-12.3 18.1-26.9 29.6-36.8 4.1-4.6 8.4-9.1 12.9-13.4l3.4-3.4c4.3-4.1 8.6-8.1 13.1-12.1l0.6-0.5c4.5-3.9 9.5-8.1 14.7-12.2l0.8-0.6c1.3-0.9 2.4-1.9 3.6-2.7 5.2-4 10.5-7.9 15.9-11.8l0.6-0.3c2.3-1.7 4.8-3.2 7.4-4.8 1-0.7 2.2-1.6 3.4-2.2 3.9-2.5 7.8-4.9 11.8-7.4l1.8-0.9c3.4-2 7-4 10.5-5.9 1.2-0.8 2.4-1.3 3.7-2 2.5-1.2 5-2.5 7.4-3.8l1.2-0.5c5-2.5 10.2-4.8 15.2-7.1 5.3-2.3 10.6-4.5 16-6.6 1.9-0.6 3.6-1.4 5.4-1.9 3.8-1.4 7.8-2.7 11.6-4l5.2-1.7c5.5-1.7 11-3.9 16.7-4.8 295.7-49 364.2 178.8 364.2 178.8-61.6-88.7-180.9-131-308.1-98-6.3 1.6-12.6 3.4-18.8 5.5l2.1-0.6c-1.8 0.5-3.4 1-5.1 1.6-3.9 1.3-7.9 2.7-11.7 4.1l-5.4 2c-4.2 1.7-8.4 3.2-12.5 5-1.3 0.6-2.4 0.9-3.4 1.5-5.2 2.4-10.5 4.7-15.6 7.2l-7.7 4-4.5 2.2c-3.4 1.8-6.6 3.7-9.9 5.6-0.8 0.4-1.6 0.8-2.4 1.3l0.1-0.1c-3.9 2.5-8.1 4.8-11.8 7.4-1.3 0.7-2.4 1.6-3.6 2.3l-7.8 5.1c-5.4 3.7-10.6 7.8-15.9 11.7-1.2 1.1-2.4 2-3.5 2.9-55.9 43.9-100 104-120.9 172.1-22 70.7-17.2 150 20.9 214.4l-47-66.4zM574.1 844.3c-33.9-49.7-37.1-111.5-13.8-166.3 24.8-58.3 75.5-104 134.6-125.7 2.4-0.9 4.8-1.7 7.3-2.6l3.3-1c3.4-1.1 6.9-2.4 10.4-3.1 163.4-31.5 207.6 83.9 219.5 100.8-38.9-55.9-104.2-69.3-184.2-49.8-7 1.7-13.8 3.8-20.5 6.4l1.2-0.4c-8.3 2.9-16.5 6.3-24.4 10.1l1.4-0.6c-14.4 7-28.2 15.4-40.9 25.1l0.6-0.4c-71.7 54.3-116.1 158-69.3 242.4l-25.2-34.9z" />
<glyph unicode="&#xe903;" glyph-name="bootstrap" d="M960 149.4c0-82.1-67.2-149.3-149.3-149.3h-597.3c-82.2-0.1-149.4 67.1-149.4 149.3v597.2c0 82.2 67.2 149.4 149.4 149.4h597.3c82.1 0 149.3-67.2 149.3-149.4v-597.2zM296 708.8h253.8c46.7 0 84.9-10.3 112.9-32.7s42-54.1 42-97.1c0-26.1-6.5-48.5-19.6-67.2s-31.7-33.6-55.1-43.9v-1.9c32.7-6.5 56.9-22.4 72.8-45.7 16.8-23.3 25.2-53.2 25.2-88.7 0-20.5-3.7-40.1-11.2-56.9-7.5-17.7-18.7-33.6-34.5-45.7-15.9-13.1-35.5-23.3-59.7-30.8-24.3-7.5-53.2-11.2-86.8-11.2h-239.8v521.8zM387.4 490.5h149.3c22.4 0 40.1 6.5 55.1 18.7 14.9 12.1 22.4 30.8 22.4 54.1 0 26.1-6.5 44.8-19.6 56-13.1 10.3-32.7 15.9-56.9 15.9h-149.4l-0.9-144.7zM387.4 260.9h161.5c28 0 49.5 7.5 64.4 21.5s23.3 34.5 23.3 61.6c0 26.1-7.5 45.7-23.3 59.7-15.9 14-37.3 20.5-64.4 20.5h-161.5v-163.3z" />
<glyph unicode="&#xe904;" glyph-name="npm" d="M170.667 533.333v-170.667h85.333v128h42.667v-128h42.667v170.667h-170.667zM384 533.333v-213.333h85.333v42.667h85.333v170.667h-170.667zM512 490.667v-85.333h-42.667v85.333h42.667zM597.333 533.333v-170.667h85.333v128h42.667v-128h42.667v128h42.667v-128h42.667v170.667h-256zM128 576h768v-256h-384v-42.667h-170.667v42.667h-213.333v256z" />
<glyph unicode="&#xe905;" glyph-name="git" d="M110.933 508.16l246.613 247.040 72.107-72.533c-10.24-36.267 6.4-75.947 39.68-95.147v-236.373c-25.6-14.507-42.667-42.24-42.667-73.813 0-47.128 38.205-85.333 85.333-85.333v0c47.128 0 85.333 38.205 85.333 85.333v0c0 31.573-17.067 59.307-42.667 73.813v207.36l88.32-89.173c-2.987-6.4-2.987-13.653-2.987-21.333 0-47.128 38.205-85.333 85.333-85.333v0c47.128 0 85.333 38.205 85.333 85.333v0c0 47.128-38.205 85.333-85.333 85.333v0c-7.68 0-14.933 0-21.333-2.987l-109.653 109.653c1.83 6.561 2.881 14.095 2.881 21.875 0 34.915-21.182 64.884-51.396 77.756l-0.552 0.209c-18.347 6.827-37.547 8.533-54.613 3.84l-72.533 72.107 33.707 33.28c33.28 33.707 87.040 33.707 120.32 0l340.907-340.907c33.707-33.28 33.707-87.040 0-120.32l-340.907-340.907c-33.28-33.707-87.040-33.707-120.32 0l-340.907 340.907c-33.707 33.28-33.707 87.040 0 120.32z" />
<glyph unicode="&#xe906;" glyph-name="react" d="M432 448.2c0-44.183 35.817-80 80-80s80 35.817 80 80v0c0 44.183-35.817 80-80 80s-80-35.817-80-80v0zM960.5 448.2c0 62.8-73.8 117.2-188.5 150.1 28.9 115.8 18.7 206.9-35.7 238.3-54.5 31.4-138.5-5.3-224.3-88.2-85.8 82.9-169.8 119.6-224.3 88.2-54.4-31.4-64.6-122.6-35.7-238.3-114.7-32.9-188.5-87.3-188.5-150.1s73.8-117.2 188.5-150.1c-28.9-115.7-18.7-206.9 35.7-238.3 13.4-7.8 28.6-11.6 45.2-11.6 39.7 0 87.8 21.8 140 64.2 13 10.6 26.1 22.6 39.1 35.2 13-12.6 26.1-24.6 39.1-35.2 52.2-42.4 100.2-64.2 140-64.2 16.6 0 31.8 3.8 45.2 11.6 54.4 31.4 64.6 122.5 35.7 238.3 114.7 32.9 188.5 87.3 188.5 150.1zM716.8 802.8c35.3-20.4 42.7-94.3 17.6-194.8-36.7 8.4-76.7 14.7-119.3 18.6-24.7 34.9-50.2 66.4-75.8 94 59.2 57.3 114.2 88.4 152 88.4 9.6 0.1 18.2-2 25.5-6.2zM637 376c-13.8-24-28.4-47-43.3-69-26.1-2-53.3-3.1-81.7-3.1-28.3 0-55.5 1.1-81.6 3.1-15 22-29.5 45.1-43.3 69-14.1 24.5-26.7 48.6-38.1 72.2 11.4 23.6 24 47.7 38.1 72.2s28.7 47.4 43.4 69.1c26.1 2 53.3 3.1 81.6 3.1s55.5-1.1 81.6-3.1c14.7-21.6 29.3-44.6 43.4-69 14.1-24.5 26.7-48.6 38.1-72.2-11.5-23.7-24.1-47.8-38.2-72.3zM695.8 402.4c11.2-26.6 20.4-52.1 28-76.5-24.9-5.6-51.7-10.4-80.3-14 9.3 14.5 18.4 29.3 27.3 44.6 8.8 15.4 17.1 30.7 25 45.9zM512 203.5c-17.7 19.2-35.1 40.1-52.2 62.6 17.1-0.8 34.5-1.3 52.2-1.3s35.1 0.5 52.2 1.3c-17.1-22.5-34.5-43.4-52.2-62.6zM380.5 311.9c-28.6 3.6-55.3 8.4-80.3 14 7.6 24.4 16.8 49.9 28 76.5 7.9-15.2 16.1-30.5 25-45.9 8.9-15.2 18-30 27.3-44.6zM328.2 494c-11.2 26.6-20.4 52.1-28 76.5 24.9 5.6 51.6 10.4 80.2 14-9.2-14.4-18.4-29.2-27.2-44.6s-17.1-30.7-25-45.9zM512 692.9c17.3-18.7 34.8-39.8 52.1-62.7-17.1 0.8-34.4 1.3-52.1 1.3s-35-0.5-52.1-1.3c17.3 22.9 34.8 44 52.1 62.7zM670.7 539.9c-8.9 15.3-18 30.1-27.2 44.6 28.6-3.6 55.3-8.4 80.2-14-7.6-24.4-16.8-49.9-28-76.5-7.8 15.2-16.1 30.5-25 45.9zM307.2 802.8c7.2 4.2 15.8 6.2 25.6 6.2 37.8 0 92.7-31.1 151.9-88.4-25.6-27.6-51.1-59.2-75.8-94-42.5-3.9-82.6-10.2-119.3-18.6-25.1 100.6-17.6 174.5 17.6 194.8zM102.5 448.2c0 40.8 60.3 84.2 160 112.6 11.1-36 25.6-73.8 43.5-112.6-17.8-38.8-32.4-76.6-43.5-112.6-99.7 28.4-160 71.9-160 112.6zM448.3 142.7c-59.7-48.5-111.1-66.4-141.1-49.2-35.3 20.4-42.7 94.3-17.6 194.8 36.7-8.4 76.7-14.7 119.3-18.6 24.4-34.5 49.9-66.1 75.8-94.2-12.1-11.7-24.2-22.9-36.4-32.8zM716.8 93.5c-29.9-17.3-81.4 0.6-141.1 49.2-12.1 9.9-24.3 21.1-36.5 32.8 26 28.1 51.4 59.7 75.8 94.2 42.5 3.9 82.6 10.2 119.3 18.7 25.2-100.6 17.7-174.5-17.5-194.9zM761.6 335.6c-11.1 36-25.6 73.8-43.5 112.6 17.8 38.8 32.4 76.6 43.5 112.6 99.7-28.5 160-71.9 160-112.6-0.1-40.7-60.4-84.2-160-112.6z" />
<glyph unicode="&#xe907;" glyph-name="linkedin" d="M260.096 804.352c0-27.307-9.899-50.517-29.696-69.632s-45.397-28.672-76.8-28.672c-30.037 0-54.613 9.557-73.728 28.672s-28.672 42.325-28.672 69.632c0 28.672 9.557 52.224 28.672 70.656s44.373 27.648 75.776 27.648c31.403 0 56.32-9.216 74.752-27.648s28.331-41.984 29.696-70.656c0 0 0 0 0 0zM57.344-4.608c0 0 0 632.832 0 632.832s196.608 0 196.608 0c0 0 0-632.832 0-632.832s-196.608 0-196.608 0c0 0 0 0 0 0zM370.688 425.472c0 58.709-1.365 126.293-4.096 202.752 0 0 169.984 0 169.984 0s10.24-88.064 10.24-88.064c0 0 4.096 0 4.096 0 40.96 68.267 105.813 102.4 194.56 102.4 68.267 0 123.221-22.869 164.864-68.608s62.464-113.664 62.464-203.776c0 0 0-374.784 0-374.784s-196.608 0-196.608 0c0 0 0 350.208 0 350.208 0 91.477-33.451 137.216-100.352 137.216-47.787 0-81.237-24.576-100.352-73.728-4.096-8.192-6.144-24.576-6.144-49.152 0 0 0-364.544 0-364.544s-198.656 0-198.656 0c0 0 0 430.080 0 430.080s0 0 0 0z" />
<glyph unicode="&#xe908;" glyph-name="telegram" d="M417.28 164.267l11.947 180.48 327.68 295.253c14.507 13.227-2.987 19.627-22.187 8.107l-404.48-255.573-174.933 55.467c-37.547 10.667-37.973 36.693 8.533 55.467l681.387 262.827c31.147 14.080 61.013-7.68 49.067-55.467l-116.053-546.56c-8.107-38.827-31.573-48.213-64-30.293l-176.64 130.56-84.907-82.347c-9.813-9.813-17.92-17.92-35.413-17.92z" />
<glyph unicode="&#xe909;" glyph-name="css" d="M213.333 832l-27.733-142.507h579.84l-18.773-92.16h-579.413l-28.16-142.080h579.84l-32.427-162.56-233.813-77.227-202.667 77.227 14.080 69.973h-142.507l-33.707-170.667 334.933-128 386.133 128 51.2 257.28 10.24 51.627 65.707 331.093h-722.773z" />
<glyph unicode="&#xe90a;" glyph-name="scss" d="M848.896 392.704c-32.768 0-62.464-7.168-86.016-19.456-9.216 17.408-17.408 32.768-19.456 45.056-1.024 13.312-4.096 20.48-1.024 36.864 1.024 16.384 12.288 38.912 12.288 39.936s-1.024 10.24-20.48 10.24-35.84-3.072-36.864-9.216c-1.024-4.096-6.144-16.384-7.168-28.672-3.072-17.408-38.912-78.848-58.368-111.616-6.144 13.312-12.288 23.552-13.312 32.768-1.024 13.312-4.096 20.48-1.024 36.864 1.024 16.384 12.288 38.912 12.288 39.936s-1.024 10.24-20.48 10.24-35.84-3.072-36.864-9.216-4.096-16.384-7.168-28.672c-4.096-12.288-50.176-114.688-62.464-141.312-6.144-13.312-12.288-25.6-15.36-32.768v-1.024c-3.072-6.144-6.144-10.24-6.144-10.24-3.072-4.096-6.144-9.216-7.168-9.216s-3.072 12.288 0 29.696c7.168 35.84 23.552 92.16 23.552 93.184s3.072 10.24-10.24 16.384c-13.312 4.096-17.408-3.072-19.456-3.072s-1.024-3.072-1.024-3.072 15.36 62.464-28.672 62.464c-26.624 0-65.536-29.696-84.992-56.32-12.288-6.144-36.864-20.48-63.488-33.792-10.24-6.144-20.48-12.288-30.72-16.384 0 0-1.024 1.024-1.024 3.072-53.248 56.32-151.552 96.256-147.456 174.080 1.024 28.672 10.24 101.376 188.416 188.416 145.408 72.704 263.168 52.224 282.624 7.168 28.672-63.488-62.464-181.248-214.016-197.632-58.368-6.144-88.064 16.384-95.232 23.552-7.168 9.216-9.216 9.216-12.288 7.168-4.096-3.072-1.024-10.24 0-15.36 4.096-12.288 23.552-32.768 55.296-43.008 28.672-9.216 95.232-13.312 177.152 17.408 92.16 35.84 163.84 134.144 142.336 217.088s-163.84 115.712-294.912 68.608c-78.848-28.672-163.84-71.68-224.256-129.024-72.704-68.608-82.944-125.952-78.848-151.552 16.384-88.064 138.24-144.384 185.344-187.392-3.072-1.024-4.096-3.072-6.144-3.072-23.552-12.288-115.712-59.392-139.264-111.616-26.624-58.368 4.096-100.352 23.552-104.448 62.464-17.408 125.952 13.312 160.768 65.536 33.792 50.176 29.696 117.76 15.36 147.456v1.024c6.144 3.072 13.312 7.168 19.456 10.24 12.288 7.168 23.552 13.312 33.792 19.456-6.144-16.384-10.24-35.84-12.288-63.488-3.072-32.768 10.24-75.776 28.672-92.16 7.168-7.168 16.384-7.168 22.528-7.168 20.48 0 29.696 16.384 39.936 36.864 12.288 25.6 23.552 53.248 23.552 53.248s-13.312-76.8 23.552-76.8c13.312 0 28.672 17.408 33.792 26.624 6.144 9.216 0 0 1.024 1.024 1.024 3.072 3.072 3.072 3.072 3.072 6.144 10.24 17.408 30.72 36.864 68.608 23.552 47.104 47.104 107.52 47.104 107.52s1.024-15.36 9.216-38.912c4.096-13.312 13.312-29.696 19.456-45.056-6.144-7.168-9.216-12.288-9.216-12.288-3.072-6.144-7.168-11.264-13.312-19.456-19.456-22.528-41.984-49.152-45.056-56.32-3.072-9.216-3.072-15.36 4.096-20.48 4.096-4.096 13.312-4.096 23.552-4.096 16.384 1.024 29.696 6.144 33.792 7.168 9.216 3.072 19.456 9.216 29.696 16.384 19.456 13.312 29.696 32.768 28.672 59.392 0 15.36-6.144 28.672-10.24 41.984 1.024 3.072 3.072 4.096 4.096 7.168 29.696 43.008 52.224 91.136 52.224 91.136s1.024-15.36 9.216-38.912c3.072-12.288 10.24-25.6 16.384-38.912-28.672-22.528-45.056-49.152-50.176-65.536-10.24-30.72-3.072-46.080 13.312-49.152 7.168-1.024 17.408 1.024 25.6 6.144 10.24 3.072 20.48 9.216 32.768 16.384 19.456 13.312 36.864 32.768 35.84 59.392 0 12.288-3.072 23.552-7.168 33.792 23.552 10.24 53.248 15.36 92.16 10.24 82.944-10.24 99.328-61.44 96.256-82.944-3.072-22.528-20.48-33.792-26.624-36.864s-7.168-4.096-7.168-7.168c0-4.096 3.072-3.072 9.216-3.072 7.168 1.024 43.008 17.408 45.056 58.368-7.168 52.224-56.32 107.52-140.288 107.52zM208.896 177.664c-26.624-29.696-65.536-41.984-81.92-30.72-17.408 10.24-10.24 55.296 22.528 86.016 20.48 19.456 47.104 36.864 63.488 47.104 4.096 3.072 10.24 6.144 16.384 10.24 1.024 0 1.024 1.024 1.024 1.024 1.024 1.024 3.072 1.024 4.096 3.072 16.384-46.080 4.096-83.968-25.6-116.736zM409.6 313.856c-9.216-23.552-29.696-82.944-41.984-79.872-10.24 3.072-16.384 47.104-1.024 92.16 7.168 22.528 23.552 49.152 32.768 59.392 15.36 16.384 30.72 22.528 35.84 15.36 3.072-8.192-19.456-71.68-25.6-87.040zM574.464 235.008c-4.096-1.024-7.168-3.072-9.216-3.072s1.024 3.072 1.024 3.072 20.48 22.528 28.672 32.768c4.096 6.144 10.24 13.312 16.384 20.48v-3.072c1.024-24.576-25.6-41.984-36.864-50.176zM701.44 263.68c-3.072 1.024-3.072 9.216 7.168 30.72 4.096 9.216 13.312 22.528 28.672 36.864 1.024-6.144 3.072-10.24 3.072-16.384 0-33.792-24.576-45.056-38.912-51.2z" />
<glyph unicode="&#xe90b;" glyph-name="html" d="M60.544 960l82.176-921.6 368.768-102.4 369.728 102.528 82.304 921.472h-902.912zM784.64 658.56h-432.512l10.304-115.776h411.968l-31.040-347.008-231.872-64.256-231.552 64.256-15.808 177.536h113.472l8.064-90.24 125.888-33.92 0.256 0.064 125.952 33.984 13.056 146.56h-391.744l-30.464 341.824h566.208l-10.112-113.024z" />
<glyph unicode="&#xe90c;" glyph-name="email" d="M1021.594 123.494l-319.232 355.584 318.669 295.885c1.485-4.301 2.867-8.653 2.867-13.312v-627.251c0-3.891-1.331-7.322-2.304-10.906zM39.168 804.813c2.918 0.512 5.478 1.638 8.397 1.638h928.973c2.918 0 5.53-1.126 8.397-1.638l-472.883-417.229-472.883 417.229zM2.458 123.443c-0.922 3.584-2.355 7.014-2.355 10.957v627.251c0 4.762 1.485 9.062 2.918 13.363l318.822-295.936-319.386-355.635zM496.845 341.197c4.403-3.533 9.83-5.222 15.206-5.222 5.427 0 10.752 1.69 15.104 5.222l138.598 109.056 322.355-358.451c-3.789-0.922-7.475-2.253-11.571-2.253h-928.973c-4.045 0-7.731 1.331-11.469 2.253l322.304 358.451 138.445-109.056z" />
<glyph unicode="&#xe90d;" glyph-name="phone" d="M911.243 251.435q0-15.424-5.717-40.277t-12.011-39.147q-12.011-28.565-69.717-60.565-53.717-29.141-106.283-29.141-15.424 0-29.995 2.005t-32.853 7.147-27.136 8.277-31.723 11.712-28.011 10.283q-56 20.011-100.011 47.424-73.152 45.141-151.147 123.136t-123.136 151.147q-27.435 44.011-47.424 100.011-1.707 5.141-10.283 28.011t-11.712 31.723-8.277 27.136-7.147 32.853-2.005 29.995q0 52.565 29.141 106.283 32 57.707 60.565 69.717 14.293 6.293 39.147 12.011t40.277 5.717q8 0 12.011-1.707 10.283-3.435 30.293-43.435 6.293-10.859 17.152-30.848t20.011-36.288 17.707-30.571q1.707-2.283 10.005-14.293t12.288-20.288 4.011-16.277q0-11.435-16.277-28.565t-35.435-31.424-35.435-30.293-16.277-26.283q0-5.141 2.859-12.864t4.864-11.712 8-13.717 6.571-10.859q43.435-78.293 99.435-134.293t134.293-99.435q1.152-0.576 10.859-6.571t13.717-8 11.712-4.864 12.864-2.859q10.283 0 26.283 16.277t30.293 35.435 31.424 35.435 28.565 16.277q8 0 16.277-4.011t20.288-12.288 14.293-10.005q14.293-8.576 30.571-17.707t36.288-20.011 30.848-17.152q40-20.011 43.435-30.293 1.707-4.011 1.707-12.011z" />
<glyph unicode="&#xe90e;" glyph-name="location" d="M422 532.977c0-49.706 40.294-90 90-90s90 40.294 90 90v0c0 49.706-40.294 90-90 90s-90-40.294-90-90v0zM512 49.598c-19.14 0-37.482 5.854-53.042 16.929-14.063 10.010-24.926 23.596-31.589 39.46l-172.48 269.086c-29.367 47.718-44.889 102.322-44.889 157.906 0 80.667 31.414 156.506 88.454 213.546s132.879 88.454 213.546 88.454 156.506-31.414 213.546-88.454c57.041-57.040 88.454-132.879 88.454-213.546 0-55.849-15.655-110.671-45.274-158.539l-0.264-0.419-172.081-268.716c-6.755-15.726-17.66-29.176-31.704-39.055-15.485-10.895-33.7-16.652-52.677-16.652zM309.246 408.859l175.494-273.78 1.194-3.197c4.149-11.107 14.381-18.284 26.066-18.284 11.584 0 21.791 7.071 26.004 18.015l1.165 3.028 175.261 273.681c23.271 37.695 35.57 80.794 35.57 124.657 0 63.572-24.756 123.339-69.709 168.292-44.952 44.951-104.719 69.708-168.291 69.708s-123.339-24.756-168.292-69.708-69.708-104.72-69.708-168.292c0-43.64 12.186-86.552 35.246-124.12z" />
<glyph unicode="&#xe90f;" glyph-name="github" d="M512 917.333c-1.403 0.015-3.061 0.024-4.721 0.024-254.822 0-461.733-205.132-464.61-459.272l-0.002-0.272c1.024-203.513 133.941-375.711 317.598-435.562l3.256-0.918c23.467-4.267 32 9.813 32 22.187v78.080c-130.56-27.733-158.293 61.44-158.293 61.44-9.044 28.536-27.453 51.925-51.549 67.116l-0.504 0.297c-42.667 28.16 3.413 27.733 3.413 27.733 30.629-4.206 56.403-21.96 71.432-46.916l0.248-0.444c17.804-30.463 50.348-50.603 87.597-50.603 17.96 0 34.826 4.682 49.445 12.892l-0.509-0.263c2.548 24.285 13.494 45.625 29.838 61.412l0.029 0.028c-104.107 11.52-213.333 50.773-213.333 226.987-0.023 1.067-0.036 2.325-0.036 3.586 0 46.634 18.028 89.057 47.494 120.68l-0.098-0.106c-6.079 16.305-9.596 35.143-9.596 54.802 0 24.050 5.264 46.871 14.703 67.373l-0.414-1.002s39.68 12.373 128-46.933c35.195 9.757 75.609 15.365 117.333 15.365s82.138-5.608 120.53-16.111l-3.196 0.745c89.6 59.307 128 46.933 128 46.933 9.025-19.5 14.29-42.321 14.29-66.371 0-19.66-3.518-38.498-9.958-55.92l0.362 1.117c30.882-31.834 49.92-75.31 49.92-123.233 0-0.026 0-0.052 0-0.078v0.004c0-176.64-110.080-215.467-213.333-226.987 19.972-19.407 32.364-46.521 32.364-76.53 0-3.099-0.132-6.166-0.391-9.198l0.027 0.395v-125.867c0-14.933 8.533-26.88 32-22.187 186.343 61.127 318.767 232.963 319.999 435.906l0.001 0.147c-2.879 254.412-209.79 459.544-464.612 459.544-1.66 0-3.318-0.009-4.974-0.026l0.253 0.002z" />
<glyph unicode="&#xe910;" glyph-name="whatsapp" d="M713.5 360.1c-10.9 5.6-65.2 32.2-75.3 35.8-10.1 3.8-17.5 5.6-24.8-5.6-7.4-11.1-28.4-35.8-35-43.3-6.4-7.4-12.9-8.3-23.8-2.8-64.8 32.4-107.3 57.8-150 131.1-11.3 19.5 11.3 18.1 32.4 60.2 3.6 7.4 1.8 13.7-1 19.3s-24.8 59.8-34 81.9c-8.9 21.5-18.1 18.5-24.8 18.9-6.4 0.4-13.7 0.4-21.1 0.4s-19.3-2.8-29.4-13.7c-10.1-11.1-38.6-37.8-38.6-92s39.5-106.7 44.9-114.1c5.6-7.4 77.7-118.6 188.4-166.5 70-30.2 97.4-32.8 132.4-27.6 21.3 3.2 65.2 26.6 74.3 52.5 9.1 25.8 9.1 47.9 6.4 52.5-2.7 4.9-10.1 7.7-21 13zM925.2 621.6c-22.6 53.7-55 101.9-96.3 143.3-41.3 41.3-89.5 73.8-143.3 96.3-55 23.1-113.4 34.8-173.6 34.8h-2c-60.6-0.3-119.3-12.3-174.5-35.9-53.3-22.8-101.1-55.2-142-96.5s-73-89.3-95.2-142.8c-23-55.4-34.6-114.3-34.3-174.9 0.3-69.4 16.9-138.3 48-199.9v-152c0-25.4 20.6-46 46-46h152.1c61.6-31.1 130.5-47.7 199.9-48h2.1c59.9 0 118 11.6 172.7 34.3 53.5 22.3 101.6 54.3 142.8 95.2 41.3 40.9 73.8 88.7 96.5 142 23.6 55.2 35.6 113.9 35.9 174.5 0.3 60.9-11.5 120-34.8 175.6zM774.1 183.6c-70.1-69.4-163.1-107.6-262.1-107.6h-1.7c-60.3 0.3-120.2 15.3-173.1 43.5l-8.4 4.5h-140.8v140.8l-4.5 8.4c-28.2 52.9-43.2 112.8-43.5 173.1-0.4 99.7 37.7 193.3 107.6 263.8 69.8 70.5 163.1 109.5 262.8 109.9h1.7c50 0 98.5-9.7 144.2-28.9 44.6-18.7 84.6-45.6 119-80 34.3-34.3 61.3-74.4 80-119 19.4-46.2 29.1-95.2 28.9-145.8-0.6-99.6-39.7-192.9-110.1-262.7z" />
<glyph unicode="&#xe911;" glyph-name="viber" d="M887.925 860.22c-25.395 23.395-128.174 97.98-357.329 98.98 0 0-270.146 16.197-401.72-104.579-73.185-73.185-98.98-180.564-101.78-313.538s-6.199-382.124 233.953-449.71h0.2l-0.2-103.179s-1.6-41.792 25.995-50.19c33.193-10.398 52.789 21.396 84.583 55.589 17.397 18.796 41.392 46.391 59.588 67.387 164.367-13.797 290.542 17.796 304.939 22.396 33.193 10.798 220.956 34.793 251.35 283.943 31.594 257.149-15.197 419.516-99.58 492.902zM915.72 386.114c-25.795-207.959-177.965-221.156-205.959-230.154-11.998-3.799-122.975-31.394-262.348-22.396 0 0-103.979-125.375-136.373-157.969-10.598-10.598-22.196-9.598-21.996 11.398 0 13.797 0.8 171.366 0.8 171.366-0.2 0-0.2 0 0 0-203.559 56.389-191.562 268.546-189.362 379.524s23.195 201.96 85.183 263.148c111.378 100.98 340.732 85.983 340.732 85.983 193.761-0.8 286.543-59.188 308.139-78.784 71.386-61.188 107.779-207.559 81.184-422.116zM637.775 547.682c0.8-17.197-24.995-18.396-25.795-1.2-2.2 43.991-22.795 65.387-65.187 67.786-17.197 1-15.597 26.795 1.4 25.795 55.789-2.999 86.783-34.993 89.582-92.382zM678.367 525.087c2 84.783-50.99 151.17-151.57 158.568-16.997 1.2-15.197 26.995 1.8 25.795 115.977-8.398 177.765-88.182 175.565-184.963-0.2-17.197-26.195-16.397-25.795 0.6zM772.348 498.292c0.2-17.197-25.795-17.397-25.795-0.2-1.2 162.968-109.778 251.75-241.552 252.75-16.997 0.2-16.997 25.795 0 25.795 147.371-1 265.947-102.78 267.347-278.345zM749.753 302.131v-0.4c-21.596-37.992-61.988-79.984-103.579-66.587l-0.4 0.6c-42.192 11.798-141.572 62.987-204.359 112.977-32.394 25.595-61.988 55.789-84.783 84.783-20.596 25.795-41.392 56.389-61.588 93.181-42.592 76.985-51.99 111.378-51.99 111.378-13.397 41.592 28.394 81.984 66.587 103.579h0.4c18.396 9.598 35.993 6.399 47.79-7.798 0 0 24.795-29.594 35.393-44.191 9.998-13.597 23.395-35.393 30.394-47.591 12.198-21.796 4.599-43.991-7.399-53.189l-23.995-19.196c-12.198-9.798-10.598-27.994-10.598-27.994s35.593-134.573 168.566-168.566c0 0 18.196-1.6 27.994 10.598l19.196 23.995c9.198 11.998 31.394 19.596 53.189 7.399 29.394-16.597 66.787-42.392 91.582-65.787 13.997-11.398 17.197-28.794 7.598-47.191z" />
<glyph unicode="&#xe912;" glyph-name="instagram" d="M332.8 874.667h358.4c136.533 0 247.467-110.933 247.467-247.467v-358.4c0-136.672-110.795-247.467-247.467-247.467v0h-358.4c-136.533 0-247.467 110.933-247.467 247.467v358.4c0 136.672 110.795 247.467 247.467 247.467v0zM324.267 789.333c-84.831 0-153.6-68.769-153.6-153.6v0-375.467c0-84.907 68.693-153.6 153.6-153.6h375.467c84.831 0 153.6 68.769 153.6 153.6v375.467c0 84.907-68.693 153.6-153.6 153.6h-375.467zM736 725.333c29.455 0 53.333-23.878 53.333-53.333v0c0-29.455-23.878-53.333-53.333-53.333v0c-29.455 0-53.333 23.878-53.333 53.333v0c0 29.455 23.878 53.333 53.333 53.333v0zM512 661.333c117.821 0 213.333-95.513 213.333-213.333v0c0-117.821-95.513-213.333-213.333-213.333v0c-117.821 0-213.333 95.513-213.333 213.333v0c0 117.821 95.513 213.333 213.333 213.333v0zM512 576c-70.692 0-128-57.308-128-128v0c0-70.692 57.308-128 128-128v0c70.692 0 128 57.308 128 128v0c0 70.692-57.308 128-128 128v0z" />
<glyph unicode="&#xe913;" glyph-name="facebook" d="M767.429 953.143v-150.857h-89.714q-49.143 0-66.286-20.571t-17.143-61.714v-108h167.429l-22.286-169.143h-145.143v-433.714h-174.857v433.714h-145.714v169.143h145.714v124.571q0 106.286 59.429 164.857t158.286 58.571q84 0 130.286-6.857z" />
<glyph unicode="&#xe915;" glyph-name="comment" d="M511.999 112.117c-28.735 0-56.729 2.604-83.97 7.1l-196.797-119.402v198.778c-102.614 72.052-168.46 182.518-168.46 306.582 0 217.079 201.13 393.058 449.228 393.058 248.084 0 449.228-175.98 449.228-393.058-0.001-217.091-201.145-393.057-449.229-393.057zM511.999 842.082c-217.087 0-393.074-150.852-393.074-336.907 0-114.166 66.421-214.898 167.762-275.821l-1.768-130.234 132.172 79.456c30.449-6.498 62.117-10.309 94.91-10.309 217.101 0 393.073 150.825 393.073 336.907 0 186.057-175.972 336.908-393.074 336.908zM736.614 449.023c-31.012 0-56.154 25.128-56.154 56.151 0 31.010 25.143 56.152 56.154 56.152s56.154-25.142 56.154-56.152c0-31.023-25.144-56.151-56.154-56.151zM511.999 449.023c-31.011 0-56.153 25.128-56.153 56.151 0 31.010 25.143 56.152 56.153 56.152 31.012 0 56.154-25.142 56.154-56.152 0-31.023-25.143-56.151-56.154-56.151zM287.386 449.023c-31.011 0-56.153 25.128-56.153 56.151 0 31.010 25.143 56.152 56.153 56.152s56.153-25.142 56.153-56.152c0-31.023-25.143-56.151-56.153-56.151z" />
<glyph unicode="&#xe916;" glyph-name="calendar" d="M768.7 736v96h-65v-96h-383.1v96h-65v-96h-159.4v-575.8h832.9v575.8h-160.4zM865.1 224.2h-704.9v287.6h704.9v-287.6z" />
</font>
</defs>
</svg>
