<svg width="48" height="48" viewBox="0 0 48 48" fill="none" xmlns="http://www.w3.org/2000/svg">
<path d="M39.4854 17.9593C42.3626 13.1072 43.1161 5.46167 44.0872 0.00150417C38.4652 -0.059529 30.7549 1.72322 25.6318 4.43323C20.5087 7.14323 17.8603 9.42732 15.2078 14.5804C15.1384 13.3061 14.1969 9.70662 14.1969 9.70662C14.1969 9.70662 9.42394 15.4294 7.78564 19.3627C5.80023 24.1293 6.19812 28.1975 6.72597 30.4752C5.83596 31.0217 4.90815 31.586 3.93491 32.1747L5.395 34.5888C6.40285 33.9792 7.36574 33.3932 8.29083 32.8243C7.68699 32.5822 7.33988 32.4269 7.33988 32.4269C7.33988 32.4269 7.01365 31.7169 6.72597 30.4756C15.916 24.8331 21.0537 21.0642 28.3943 13.0415L30.4757 14.9461C22.9293 23.1936 17.6631 27.0672 8.29177 32.8246C10.7149 33.796 17.281 36.167 22.2743 35.5522C26.6258 35.0165 33.6557 31.3207 35.8849 27.6459C35.0124 27.546 31.2538 27.2917 31.2538 27.2917C35.4606 24.754 36.9375 22.256 39.4854 17.9593Z" fill="#F2BF14"/>
<path d="M34.6328 40.4767H29.9779L28.097 48H32.752L34.6328 40.4767Z" fill="#F2BF14"/>
<path d="M27.0698 40.4767H22.4443L20.5634 48H25.189L27.0698 40.4767Z" fill="#F2BF14"/>
<path d="M10.1133 48L11.9941 40.4767H7.28861L5.40778 48H10.1133Z" fill="#F2BF14"/>
<path d="M19.5361 40.4767H14.9022L13.0213 48H17.6552L19.5361 40.4767Z" fill="#F2BF14"/>
<path d="M42.2939 40.4767H37.541L35.6601 48H40.4131L42.2939 40.4767Z" fill="#F2BF14"/>
<path d="M45.2021 40.4767L43.3212 48H47.9807V40.4767H45.2021Z" fill="#F2BF14"/>
<path d="M4.38048 40.4767H0.0193787V48H2.49964L4.38048 40.4767Z" fill="#F2BF14"/>
</svg>
