<svg width="48" height="48" viewBox="0 0 48 48" fill="none" xmlns="http://www.w3.org/2000/svg">
<path d="M32.0045 9.39774H28.9479C29.4213 8.57026 29.6935 7.61337 29.6935 6.5936C29.6935 3.46918 27.1514 0.927155 24.027 0.927155C20.9026 0.927155 18.3606 3.46918 18.3606 6.5936C18.3606 7.61337 18.6328 8.57017 19.1062 9.39774H16.0495L9.66748 34.8095H38.3865L32.0045 9.39774ZM24.027 3.75068C25.5945 3.75068 26.8699 5.02607 26.8699 6.5936C26.8699 8.00254 25.8394 9.17478 24.4927 9.39774H23.5613C22.2146 9.17478 21.1841 8.00254 21.1841 6.5936C21.1841 5.02598 22.4595 3.75068 24.027 3.75068V3.75068ZM24.0676 30.219L18.1947 24.4153L20.1795 22.407L22.6153 24.8142V15.9847H25.4389V24.8144L27.863 22.3614L29.8712 24.3462L24.0676 30.219Z" fill="#F2BF14"/>
<path d="M34.7625 40.4566H30.1036L28.4495 47.0729H33.1084L34.7625 40.4566Z" fill="#F2BF14"/>
<path d="M13.3617 47.0729H17.9995L19.6536 40.4566H15.0157L13.3617 47.0729Z" fill="#F2BF14"/>
<path d="M25.5392 47.0729L27.1933 40.4566H22.5639L20.9099 47.0729H25.5392Z" fill="#F2BF14"/>
<path d="M2.83162 47.0729L4.48574 40.4566H0V47.0729H2.83162Z" fill="#F2BF14"/>
<path d="M45.3402 40.4566L43.686 47.0729H48V40.4566H45.3402Z" fill="#F2BF14"/>
<path d="M37.6727 40.4566L36.0186 47.0729H40.7756L42.4297 40.4566H37.6727Z" fill="#F2BF14"/>
<path d="M5.74194 47.0729H10.4514L12.1054 40.4566H7.39606L5.74194 47.0729Z" fill="#F2BF14"/>
</svg>
