<svg width="48" height="44" viewBox="0 0 48 44" fill="none" xmlns="http://www.w3.org/2000/svg">
<path d="M15.5565 22.9272C19.455 22.9272 22.6153 19.7668 22.6153 15.8683C22.6153 11.9699 19.455 8.80951 15.5565 8.80951C11.658 8.80951 8.49768 11.9699 8.49768 15.8683C8.49768 19.7668 11.658 22.9272 15.5565 22.9272Z" fill="#F2BF14"/>
<path d="M14.1447 0.338913H16.9683V5.98597H14.1447V0.338913Z" fill="#F2BF14"/>
<path d="M3.57608 5.88556L5.57232 3.88932L9.56479 7.88179L7.56855 9.87803L3.57608 5.88556Z" fill="#F2BF14"/>
<path d="M0.0270996 14.4566H5.67416V17.2801H0.0270996V14.4566Z" fill="#F2BF14"/>
<path d="M3.57407 25.8486L7.56654 21.8562L9.56277 23.8524L5.5703 27.8449L3.57407 25.8486Z" fill="#F2BF14"/>
<path d="M21.541 23.8543L23.5373 21.8581L27.5297 25.8505L25.5335 27.8468L21.541 23.8543Z" fill="#F2BF14"/>
<path d="M25.4389 14.4566H31.0859V17.2801H25.4389V14.4566Z" fill="#F2BF14"/>
<path d="M21.543 7.8837L25.5355 3.89122L27.5317 5.88746L23.5392 9.87993L21.543 7.8837Z" fill="#F2BF14"/>
<path d="M39.7373 18.2329L39.3756 21.0331L42.6877 21.4611L26.0926 34.2213H30.7249L44.5204 23.6136L44.0676 27.1177L46.8678 27.4795L47.926 19.2909L39.7373 18.2329Z" fill="#F2BF14"/>
<path d="M16.9683 25.7507H14.1447V31.0454C14.1447 32.1657 14.3774 33.2422 14.8084 34.2213H18.0815C17.3662 33.351 16.9683 32.2501 16.9683 31.0454V25.7507Z" fill="#F2BF14"/>
<path d="M2.83162 43.6611L4.48574 37.0448H0V43.6611H2.83162Z" fill="#F2BF14"/>
<path d="M10.4514 43.6611L12.1055 37.0448H7.39612L5.7421 43.6611H10.4514Z" fill="#F2BF14"/>
<path d="M17.9995 43.6611L19.6536 37.0448H15.0159L13.3618 43.6611H17.9995Z" fill="#F2BF14"/>
<path d="M25.5392 43.6611L27.1933 37.0448H22.5641L20.9099 43.6611H25.5392Z" fill="#F2BF14"/>
<path d="M33.1084 43.6611L34.7624 37.0448H30.1037L28.4496 43.6611H33.1084Z" fill="#F2BF14"/>
<path d="M40.7756 43.6611L42.4298 37.0448H37.6729L36.0188 43.6611H40.7756Z" fill="#F2BF14"/>
<path d="M48 43.6611V37.0448H45.3402L43.6861 43.6611H48Z" fill="#F2BF14"/>
</svg>
