<svg width="20" height="20" viewBox="0 0 20 20" fill="none" xmlns="http://www.w3.org/2000/svg">
<g clip-path="url(#clip0_1_57)">
<path fill-rule="evenodd" clip-rule="evenodd" d="M19.6 10C19.6 15.302 15.3019 19.6 9.99999 19.6C4.69806 19.6 0.399994 15.302 0.399994 10C0.399994 4.69809 4.69806 0.400024 9.99999 0.400024C15.3019 0.400024 19.6 4.69809 19.6 10ZM14.0488 6.2232L4.7928 9.792C4.1584 10.04 4.1696 10.3912 4.684 10.5544L7.0536 11.2936L12.5504 7.8328C12.8056 7.6632 13.0424 7.7592 12.8488 7.9296L8.4008 11.948L8.2304 14.3904C8.4784 14.3904 8.5864 14.2824 8.7144 14.1544L9.872 13.0392L12.272 14.808C12.7096 15.056 13.0224 14.928 13.1392 14.4016L14.7152 6.9768L14.7144 6.9776C14.8536 6.328 14.4784 6.068 14.0488 6.2232Z" fill="white"/>
</g>
<defs>
<clipPath id="clip0_1_57">
<rect width="19.2" height="19.2" fill="white" transform="translate(0.399994 0.400024)"/>
</clipPath>
</defs>
</svg>
