<svg width="20" height="20" viewBox="0 0 20 20" fill="none" xmlns="http://www.w3.org/2000/svg">
<g clip-path="url(#clip0_1_135)">
<path d="M18.924 11.5144C19.4968 6.69277 18.6488 3.64877 17.1192 2.27197L17.12 2.27117C14.6512 -0.080029 6.3136 -0.428029 3.36 2.37677C2.0336 3.74877 1.5664 5.76237 1.5152 8.25517C1.464 10.7488 1.4032 15.42 5.756 16.6872H5.76L5.756 18.6224C5.756 18.6224 5.7264 19.4064 6.2272 19.564C6.8 19.7496 7.0592 19.3856 8.8408 17.2576C11.82 17.516 14.108 16.924 14.368 16.8376C14.9696 16.636 18.3736 16.1856 18.924 11.5144ZM9.1344 15.896C9.1344 15.896 7.2488 18.2472 6.6624 18.8576C6.4704 19.056 6.26 19.0376 6.2632 18.644C6.2632 18.3856 6.2776 15.4312 6.2776 15.4312C2.5872 14.3736 2.8048 10.396 2.8448 8.31517C2.8848 6.23357 3.2656 4.52877 4.3888 3.38077C6.98 0.951171 14.2896 1.49437 16.152 3.24477C18.4288 5.26317 17.6184 10.9656 17.6232 11.16C17.1552 15.0592 14.3968 15.3064 13.8896 15.4752C13.6728 15.5472 11.6608 16.0648 9.1344 15.896Z" fill="#333333"/>
<path d="M10.1776 3.83752C9.86962 3.83752 9.86962 4.31752 10.1776 4.32152C12.5672 4.33992 14.5352 6.00552 14.5568 9.06072C14.5568 9.38312 15.0288 9.37912 15.0248 9.05672H15.024C14.9984 5.76472 12.8496 3.85592 10.1776 3.83752Z" fill="#333333"/>
<path d="M13.3208 8.55436C13.3136 8.87276 13.7848 8.88796 13.7888 8.56556C13.828 6.75036 12.7088 5.25516 10.6056 5.09756C10.2976 5.07516 10.2656 5.55916 10.5728 5.58156C12.3968 5.71996 13.3576 6.96476 13.3208 8.55436Z" fill="#333333"/>
<path d="M12.8167 10.6192C12.4215 10.3904 12.0191 10.5328 11.8527 10.7576L11.5047 11.208C11.3279 11.4368 10.9975 11.4064 10.9975 11.4064C8.58634 10.7688 7.94154 8.24559 7.94154 8.24559C7.94154 8.24559 7.91194 7.90399 8.13274 7.72079L8.56794 7.36079C8.78554 7.18799 8.92314 6.77199 8.70154 6.36319C8.10954 5.29359 7.71194 4.92479 7.50954 4.64159C7.29674 4.37519 6.97674 4.31519 6.64394 4.49519H6.63674C5.94474 4.89999 5.18714 5.65759 5.42954 6.43759C5.84314 7.25999 6.60314 9.88159 9.02553 11.8624C10.1639 12.7992 11.9655 13.7592 12.7303 13.9808L12.7375 13.992C13.4911 14.2432 14.2239 13.456 14.6151 12.7432V12.7376C14.7887 12.3928 14.7311 12.0664 14.4775 11.8528C14.0279 11.4144 13.3495 10.9304 12.8167 10.6192Z" fill="#333333"/>
<path d="M10.9351 6.88319C11.704 6.92799 12.0768 7.3296 12.1168 8.1544C12.1312 8.4768 12.5992 8.4544 12.5848 8.132C12.5336 7.05519 11.972 6.45519 10.9608 6.39919C10.6527 6.38079 10.6239 6.86479 10.9351 6.88319Z" fill="#333333"/>
</g>
<defs>
<clipPath id="clip0_1_135">
<rect width="19.2" height="19.2" fill="white" transform="translate(0.399994 0.400024)"/>
</clipPath>
</defs>
</svg>
