<svg width="19" height="20" viewBox="0 0 19 20" fill="none" xmlns="http://www.w3.org/2000/svg">
<path d="M17.924 11.5144C18.4968 6.69277 17.6488 3.64877 16.1192 2.27197L16.12 2.27117C13.6512 -0.080029 5.3136 -0.428029 2.36 2.37677C1.0336 3.74877 0.566402 5.76237 0.515202 8.25517C0.464002 10.7488 0.403202 15.42 4.756 16.6872H4.76L4.756 18.6224C4.756 18.6224 4.7264 19.4064 5.2272 19.564C5.8 19.7496 6.0592 19.3856 7.8408 17.2576C10.82 17.516 13.108 16.924 13.368 16.8376C13.9696 16.636 17.3736 16.1856 17.924 11.5144ZM8.1344 15.896C8.1344 15.896 6.2488 18.2472 5.6624 18.8576C5.4704 19.056 5.26 19.0376 5.2632 18.644C5.2632 18.3856 5.2776 15.4312 5.2776 15.4312C1.5872 14.3736 1.8048 10.396 1.8448 8.31517C1.8848 6.23357 2.2656 4.52877 3.3888 3.38077C5.98 0.951171 13.2896 1.49437 15.152 3.24477C17.4288 5.26317 16.6184 10.9656 16.6232 11.16C16.1552 15.0592 13.3968 15.3064 12.8896 15.4752C12.6728 15.5472 10.6608 16.0648 8.1344 15.896V15.896Z" fill="white"/>
<path d="M9.17764 3.83752C8.86964 3.83752 8.86964 4.31752 9.17764 4.32152C11.5672 4.33992 13.5352 6.00552 13.5568 9.06072C13.5568 9.38312 14.0288 9.37912 14.0248 9.05672H14.024C13.9984 5.76472 11.8496 3.85592 9.17764 3.83752V3.83752Z" fill="white"/>
<path d="M12.3208 8.55436C12.3136 8.87276 12.7848 8.88796 12.7888 8.56556C12.828 6.75036 11.7088 5.25516 9.6056 5.09756C9.2976 5.07516 9.2656 5.55916 9.5728 5.58156C11.3968 5.71996 12.3576 6.96476 12.3208 8.55436V8.55436Z" fill="white"/>
<path d="M11.8167 10.6192C11.4215 10.3904 11.0191 10.5328 10.8527 10.7576L10.5047 11.208C10.3279 11.4368 9.99755 11.4064 9.99755 11.4064C7.58635 10.7688 6.94155 8.24559 6.94155 8.24559C6.94155 8.24559 6.91195 7.90399 7.13275 7.72079L7.56795 7.36079C7.78555 7.18799 7.92315 6.77199 7.70155 6.36319C7.10955 5.29359 6.71195 4.92479 6.50955 4.64159C6.29675 4.37519 5.97675 4.31519 5.64395 4.49519H5.63675C4.94475 4.89999 4.18715 5.65759 4.42955 6.43759C4.84315 7.25999 5.60315 9.88159 8.02555 11.8624C9.16395 12.7992 10.9655 13.7592 11.7303 13.9808L11.7375 13.992C12.4911 14.2432 13.2239 13.456 13.6151 12.7432V12.7376C13.7887 12.3928 13.7311 12.0664 13.4775 11.8528C13.0279 11.4144 12.3495 10.9304 11.8167 10.6192Z" fill="white"/>
<path d="M9.93515 6.88313C10.704 6.92793 11.0768 7.32953 11.1168 8.15434C11.1312 8.47674 11.5992 8.45434 11.5848 8.13194C11.5336 7.05513 10.972 6.45513 9.96075 6.39913C9.65275 6.38073 9.62395 6.86473 9.93515 6.88313V6.88313Z" fill="white"/>
</svg>
