<svg width="20" height="20" viewBox="0 0 20 20" fill="none" xmlns="http://www.w3.org/2000/svg">
<path fill-rule="evenodd" clip-rule="evenodd" d="M9.99759 0.400024H10.0024C15.2956 0.400024 19.6 4.70682 19.6 10C19.6 15.2932 15.2956 19.6 10.0024 19.6C8.04999 19.6 6.23919 19.0192 4.72119 18.0136L1.03119 19.1932L2.22759 15.6268C1.07679 14.0464 0.399994 12.1 0.399994 10C0.399994 4.70562 4.70439 0.400024 9.99759 0.400024ZM13.7044 15.3112C14.4376 15.1528 15.3568 14.6104 15.5884 13.9564C15.82 13.3012 15.82 12.7432 15.7528 12.6244C15.6986 12.5302 15.5703 12.4684 15.3787 12.3762C15.3289 12.3521 15.2747 12.3261 15.2164 12.2968C14.9344 12.1564 13.5628 11.4784 13.3036 11.3884C13.0492 11.2924 12.8068 11.326 12.6148 11.5972C12.5783 11.6483 12.5419 11.6996 12.5057 11.7505C12.274 12.0763 12.0506 12.3905 11.8648 12.5908C11.6956 12.7708 11.4196 12.7936 11.188 12.6976C11.1628 12.6871 11.1339 12.6754 11.1014 12.6623C10.7347 12.5142 9.92138 12.1857 8.93684 11.3092C8.10644 10.57 7.54244 9.64962 7.37924 9.37362C7.21901 9.09675 7.35722 8.93439 7.48496 8.78434C7.48733 8.78156 7.48969 8.77879 7.49204 8.77602C7.5744 8.67412 7.65432 8.58927 7.73464 8.504C7.79242 8.44266 7.8504 8.3811 7.90964 8.31282C7.91844 8.30268 7.927 8.29284 7.93533 8.28326C8.06113 8.13862 8.13603 8.05249 8.22044 7.87242C8.31644 7.68642 8.24804 7.49442 8.17964 7.35282C8.13258 7.25365 7.84186 6.54828 7.59229 5.94277C7.4855 5.68366 7.38625 5.44284 7.31684 5.27562C7.13084 4.83042 6.98924 4.81362 6.70724 4.80162C6.6986 4.80119 6.68987 4.80075 6.68106 4.8003C6.59192 4.79579 6.49375 4.79082 6.38564 4.79082C6.01844 4.79082 5.63564 4.89882 5.40404 5.13522C5.39595 5.14349 5.38751 5.15207 5.37876 5.16097C5.08247 5.4623 4.42244 6.13355 4.42244 7.47162C4.42244 8.81227 5.37368 10.1097 5.54969 10.3498C5.55454 10.3564 5.5588 10.3622 5.56244 10.3672C5.57303 10.3811 5.59299 10.41 5.62205 10.4521C5.98142 10.9725 7.73184 13.5074 10.342 14.5888C12.5476 15.5032 13.2028 15.418 13.7044 15.3112Z" fill="white"/>
</svg>
