<svg width="129" height="29" viewBox="0 0 129 29" fill="none" xmlns="http://www.w3.org/2000/svg">
<path d="M108.029 3.41395L105.216 14.5772L105.287 14.6097C105.553 14.2543 105.795 13.8913 106.084 13.5484C107.366 11.9716 108.91 10.7701 110.98 10.3922C114.136 9.81402 117.548 11.0179 118.404 15.1854C119.331 19.6907 117.025 25.0996 113.107 27.5925C111.173 28.824 109.065 29.2971 106.803 28.7489C104.812 28.2683 103.69 26.8967 103.207 24.9945C103.032 24.3062 102.981 23.5853 102.87 22.8645C102.819 22.922 102.745 22.9896 102.684 23.0697C101.415 24.7742 100.132 26.4662 98.8958 28.1908C98.6038 28.5962 98.2991 28.7789 97.8141 28.7064C97.6948 28.6888 97.5602 28.7064 97.4002 28.6863C97.611 27.8378 97.8141 27.0169 98.0198 26.1834C99.8818 18.7496 101.744 11.315 103.606 3.8795C103.695 3.52158 103.814 3.37891 104.226 3.37891C105.472 3.43647 106.722 3.41395 108.029 3.41395ZM114.187 16.4293C114.146 15.9813 114.128 15.5483 114.062 15.1203C113.661 12.4947 111.31 11.2282 108.844 12.3095C107.755 12.785 106.945 13.5885 106.257 14.5196C105.004 16.2769 104.177 18.2944 103.84 20.4166C103.601 21.7431 103.489 23.0797 103.84 24.4063C104.502 26.9092 106.864 27.9104 109.146 26.5914C109.705 26.2718 110.211 25.87 110.647 25.4C112.968 22.8594 113.948 19.7833 114.187 16.4394V16.4293Z" fill="white"/>
<path d="M53.9452 28.6097L55.2427 23.5012L59.2571 7.75255C59.5999 6.41597 59.9351 5.07439 60.288 3.74782C60.321 3.62517 60.4658 3.43995 60.5622 3.43745C61.908 3.41743 63.2563 3.42243 64.6579 3.42243C63.7007 7.17687 62.7535 10.8813 61.781 14.6858C62.2356 14.08 62.5987 13.5419 63.0151 13.0463C65.0464 10.6109 68.195 9.66481 71.1074 10.5859C73.0549 11.2016 74.2458 12.6984 74.4515 14.7483C74.5911 16.14 74.2737 17.4665 73.9284 18.7931C73.0939 21.9769 72.2669 25.1598 71.4476 28.3419C71.4273 28.4195 71.3968 28.4946 71.3638 28.5922H67.1336C67.286 27.9815 67.4332 27.3883 67.583 26.7951C68.3981 23.5913 69.2208 20.3925 70.0181 17.1862C70.2782 16.2389 70.2861 15.2415 70.0409 14.2903C69.8956 13.6834 69.551 13.1409 69.0606 12.7471C68.5701 12.3533 67.9614 12.1303 67.3291 12.1127C65.4298 11.9725 64.0282 12.8411 62.8805 14.2302C61.649 15.732 61.0498 17.5091 60.5953 19.3513C59.8504 22.3348 59.0887 25.3142 58.31 28.2893C58.2795 28.412 58.1323 28.5972 58.0358 28.5972C56.6951 28.6147 55.3493 28.6097 53.9452 28.6097Z" fill="white"/>
<path d="M91.8038 28.7094C91.395 26.8672 90.9913 25.0626 90.5622 23.1353C90.4479 23.3581 90.3768 23.4882 90.3083 23.6209C89.2164 25.8035 87.7132 27.5931 85.3315 28.4691C83.4322 29.1675 81.4974 29.22 79.6285 28.364C77.7597 27.508 77.036 25.9587 76.9396 24.0389C76.8735 22.7474 77.2316 21.5184 77.5464 20.2845C78.3369 17.1891 79.1275 14.0921 79.918 10.9935C79.9662 10.7982 79.984 10.608 80.2862 10.613C81.5558 10.628 82.8253 10.613 84.0949 10.613C84.166 10.6204 84.2364 10.633 84.3057 10.6506C84.1381 11.3038 83.9756 11.9396 83.8105 12.5753C83.0107 15.684 82.1905 18.7877 81.4263 21.9039C81.263 22.6161 81.2006 23.3473 81.2409 24.0764C81.3222 26.0488 82.7898 27.2677 84.7957 27.11C86.3751 26.9874 87.5533 26.1764 88.5156 25.0125C89.7369 23.5408 90.359 21.8038 90.8009 19.9816C91.5423 16.958 92.3244 13.942 93.0861 10.9234C93.1343 10.7332 93.175 10.603 93.4187 10.6055C94.6883 10.6055 95.9579 10.6055 97.2275 10.6055C97.2913 10.6138 97.3543 10.628 97.4154 10.6481C97.2122 11.474 97.0167 12.285 96.8136 13.096C95.5694 18.0902 94.3235 23.0836 93.0759 28.0762C92.8855 28.8271 93.0353 28.6719 92.2863 28.6919L91.8038 28.7094Z" fill="white"/>
<path d="M22.3247 4.47699C20.1986 4.47699 19.1364 5.0193 19.1381 6.10392V24.9712C19.1381 26.0559 20.2003 26.5973 22.3247 26.5957V28.598H10.4415V26.5957C12.5896 26.5957 13.6636 26.0542 13.6636 24.9712V6.10392C13.6636 5.02097 12.5896 4.47866 10.4415 4.47699V2.39453H22.3247V4.47699Z" fill="white"/>
<path d="M40.2714 2.39317C41.6761 2.38337 43.0789 2.4956 44.4636 2.72857C45.6163 2.90966 46.72 3.3183 47.7086 3.92999C48.6073 4.50852 49.3268 5.31998 49.7882 6.27526C50.2774 7.26476 50.5229 8.52292 50.5246 10.0497C50.5262 11.5765 50.2808 12.8697 49.7882 13.9293C49.3311 14.9265 48.6123 15.7853 47.7061 16.4173C46.7286 17.074 45.6237 17.524 44.461 17.7388C43.0792 18.0101 41.6727 18.1409 40.2638 18.1293H34.7411V24.9649C34.7411 26.0511 36.0657 26.5943 38.7149 26.5943V28.5967H26.08V26.5943C28.2028 26.5943 29.265 26.0528 29.2667 24.9699V6.10256C29.2667 5.01961 28.2045 4.4773 26.08 4.47563V2.39317H40.2714ZM34.7411 5.35918V15.2359H39.6442C41.5774 15.2359 42.9612 14.7995 43.7958 13.9268C44.6303 13.0541 45.0476 11.7676 45.0476 10.0672C45.0476 8.58049 44.6303 7.42328 43.7958 6.59564C42.9612 5.76799 41.5774 5.35584 39.6442 5.35918H34.7411Z" fill="white"/>
<path d="M122.816 5.48837C123.007 5.66462 123.227 5.80635 123.467 5.90718C123.874 6.06271 124.316 6.10795 124.747 6.0383C124.971 6.01181 125.191 5.95926 125.402 5.88174C124.919 7.58986 123.987 9.13891 122.702 10.3693C124.026 10.2856 125.298 9.82274 126.363 9.03654C127.827 7.93667 129.219 5.90522 128.971 3.70939C128.93 3.35124 128.698 1.62902 127.453 0.707236C126.647 0.108371 125.68 -0.110169 124.552 0.0516157C123.624 0.184697 122.908 0.556541 122.401 1.15932C121.894 1.7621 121.707 2.52927 121.841 3.45105C121.969 4.33174 122.294 5.01084 122.816 5.48837Z" fill="#DA4533"/>
<path d="M6.18398 5.48837C5.99317 5.66462 5.77289 5.80635 5.53308 5.90718C5.12551 6.06271 4.68379 6.10795 4.25293 6.0383C4.02925 6.01181 3.80947 5.95926 3.5981 5.88174C4.08125 7.58986 5.01323 9.13891 6.29803 10.3693C4.97396 10.2856 3.70243 9.82274 2.63651 9.03654C1.17347 7.93667 -0.218773 5.90522 0.0289993 3.70939C0.0702944 3.35124 0.302342 1.62902 1.5471 0.707236C2.35334 0.108371 3.32018 -0.110169 4.44761 0.0516157C5.37577 0.184697 6.09156 0.556541 6.5989 1.15932C7.10624 1.7621 7.29305 2.52927 7.15933 3.45105C7.03086 4.33174 6.70574 5.01084 6.18398 5.48837Z" fill="#DA4533"/>
</svg>
