<svg width="165" height="42" viewBox="0 0 165 42" fill="none" xmlns="http://www.w3.org/2000/svg">
<path d="M12.8261 41L1.15775 21.0001L12.8261 1.00011L152.174 1L163.842 20.9999L152.174 40.9999L12.8261 41Z" stroke="#FFF101" stroke-width="2"/>
<path d="M37.9503 21.88C38.5263 23.24 39.5503 24.216 41.0063 24.776C42.4623 25.336 44.2863 25.336 45.7423 24.776C47.1983 24.216 48.2383 23.24 48.8143 21.88C49.3903 20.488 49.3903 18.744 48.8143 17.384C48.2383 15.992 47.1983 15.032 45.7423 14.472C44.2863 13.912 42.4623 13.912 41.0063 14.472C39.5503 15.032 38.5263 15.992 37.9503 17.384C37.3743 18.744 37.3743 20.488 37.9503 21.88ZM43.3743 22.904C42.5263 22.904 41.8383 22.6 41.3103 21.992C40.7823 21.368 40.5103 20.584 40.5103 19.624C40.5103 18.664 40.7823 17.88 41.3103 17.272C41.8383 16.648 42.5263 16.344 43.3743 16.344C44.2223 16.344 44.9263 16.648 45.4543 17.272C45.9823 17.88 46.2543 18.664 46.2543 19.624C46.2543 20.584 45.9823 21.368 45.4543 21.992C44.9263 22.6 44.2223 22.904 43.3743 22.904ZM53.5997 25V21.688H55.5357C56.7197 21.688 57.6797 21.336 58.4317 20.648C59.1837 19.944 59.5517 19.048 59.5517 17.96C59.5517 16.872 59.1837 15.976 58.4317 15.288C57.6797 14.6 56.7197 14.248 55.5357 14.248H50.7837V25H53.5997ZM53.5997 16.488H55.0717C56.0317 16.488 56.6877 17.112 56.6877 17.96C56.6877 18.856 56.0317 19.448 55.0717 19.448H53.5997V16.488ZM69.0192 25V22.824H63.8992V20.552H68.2512V18.44H63.8992V16.424H68.7632V14.248H60.9712V25H69.0192ZM73.3939 25V18.232L78.2739 25H81.0899V14.248H78.4019V21.016L73.5059 14.248H70.6899V25H73.3939ZM86.4871 19.624C86.4391 22.84 88.9191 25.24 92.2311 25.192C93.6391 25.192 94.9991 24.776 96.3111 23.928L95.1431 21.992C94.2791 22.584 93.4471 22.872 92.6311 22.872C91.6871 22.872 90.9351 22.568 90.3431 21.976C89.7671 21.368 89.4791 20.584 89.4791 19.624C89.4791 18.664 89.7671 17.88 90.3431 17.288C90.9351 16.68 91.6871 16.376 92.6311 16.376C93.4471 16.376 94.2791 16.664 95.1431 17.256L96.3111 15.32C94.9991 14.472 93.6391 14.056 92.2311 14.056C88.9191 14.008 86.4391 16.408 86.4871 19.624ZM99.8227 25L100.623 22.824H104.575L105.375 25H108.303L103.951 14.248H101.247L96.8787 25H99.8227ZM102.591 17.432L103.807 20.712H101.375L102.591 17.432ZM109.16 24.296C110.632 24.888 112.056 25.192 113.448 25.192C114.712 25.192 115.736 24.888 116.52 24.28C117.32 23.656 117.72 22.856 117.72 21.864C117.72 17.656 112.104 19.048 112.104 17.32C112.104 16.696 112.712 16.344 113.672 16.344C114.568 16.344 115.576 16.568 116.68 17L117.336 14.824C115.976 14.312 114.68 14.056 113.448 14.056C112.216 14.056 111.192 14.36 110.408 14.968C109.624 15.56 109.224 16.344 109.224 17.32C109.224 21.384 114.84 20.088 114.84 21.864C114.84 22.52 114.232 22.904 113.208 22.904C112.328 22.904 111.192 22.648 109.816 22.12L109.16 24.296ZM127.363 25V22.824H122.243V20.552H126.595V18.44H122.243V16.424H127.107V14.248H119.315V25H127.363Z" fill="#FFF101"/>
</svg>
