<svg width="265" height="42" viewBox="0 0 265 42" fill="none" xmlns="http://www.w3.org/2000/svg">
<path d="M0 21.0001L12.2518 0.000110626L252.748 0L265 20.9999L252.748 41.9999L12.2518 42L0 21.0001Z" fill="#26C897"/>
<path d="M23.1466 25V21.432H24.1386L26.4266 25H29.5946L26.8426 20.968C28.2346 20.568 29.0986 19.336 29.0986 17.784C29.0986 16.744 28.7306 15.896 27.9946 15.24C27.2746 14.584 26.3306 14.248 25.1946 14.248H20.3306V25H23.1466ZM23.1466 16.488H24.7306C25.6106 16.488 26.2186 17.048 26.2186 17.832C26.2186 18.648 25.6106 19.192 24.7306 19.192H23.1466V16.488ZM39.0817 25V22.824H33.9617V20.552H38.3137V18.44H33.9617V16.424H38.8257V14.248H31.0337V25H39.0817ZM40.0964 19.624C40.0484 22.84 42.5284 25.24 45.8404 25.192C47.2484 25.192 48.6084 24.776 49.9204 23.928L48.7524 21.992C47.8884 22.584 47.0564 22.872 46.2404 22.872C45.2964 22.872 44.5444 22.568 43.9524 21.976C43.3764 21.368 43.0884 20.584 43.0884 19.624C43.0884 18.664 43.3764 17.88 43.9524 17.288C44.5444 16.68 45.2964 16.376 46.2404 16.376C47.0564 16.376 47.8884 16.664 48.7524 17.256L49.9204 15.32C48.6084 14.472 47.2484 14.056 45.8404 14.056C42.5284 14.008 40.0484 16.408 40.0964 19.624ZM54.1648 25V14.248H51.2368V25H54.1648ZM64.4254 25V22.824H59.3054V20.552H63.6574V18.44H59.3054V16.424H64.1694V14.248H56.3774V25H64.4254ZM69.1842 25H71.8882L76.2402 14.248H73.2002L70.5282 21.48L67.8722 14.248H64.8162L69.1842 25ZM85.2223 25V22.824H80.1023V20.552H84.4543V18.44H80.1023V16.424H84.9663V14.248H77.1743V25H85.2223ZM92.7016 20.84V25H95.6456V20.84L99.5496 14.248H96.3816L94.1736 18.248L91.9656 14.248H88.7976L92.7016 20.84ZM99.0597 21.88C99.6357 23.24 100.66 24.216 102.116 24.776C103.572 25.336 105.396 25.336 106.852 24.776C108.308 24.216 109.348 23.24 109.924 21.88C110.5 20.488 110.5 18.744 109.924 17.384C109.348 15.992 108.308 15.032 106.852 14.472C105.396 13.912 103.572 13.912 102.116 14.472C100.66 15.032 99.6357 15.992 99.0597 17.384C98.4837 18.744 98.4837 20.488 99.0597 21.88ZM104.484 22.904C103.636 22.904 102.948 22.6 102.42 21.992C101.892 21.368 101.62 20.584 101.62 19.624C101.62 18.664 101.892 17.88 102.42 17.272C102.948 16.648 103.636 16.344 104.484 16.344C105.332 16.344 106.036 16.648 106.564 17.272C107.092 17.88 107.364 18.664 107.364 19.624C107.364 20.584 107.092 21.368 106.564 21.992C106.036 22.6 105.332 22.904 104.484 22.904ZM111.765 20.68C111.717 23.336 114.037 25.24 117.093 25.192C120.149 25.24 122.469 23.336 122.421 20.68V14.248H119.493V20.568C119.493 21.96 118.517 22.904 117.093 22.904C115.685 22.904 114.693 21.96 114.693 20.568V14.248H111.765V20.68ZM127.318 25V21.432H128.31L130.598 25H133.766L131.014 20.968C132.406 20.568 133.27 19.336 133.27 17.784C133.27 16.744 132.902 15.896 132.166 15.24C131.446 14.584 130.502 14.248 129.366 14.248H124.502V25H127.318ZM127.318 16.488H128.902C129.782 16.488 130.39 17.048 130.39 17.832C130.39 18.648 129.782 19.192 128.902 19.192H127.318V16.488ZM144.313 25C145.417 25 146.313 24.712 147.017 24.152C147.721 23.576 148.073 22.84 148.073 21.944C148.073 20.776 147.433 19.816 146.361 19.384C147.145 18.952 147.689 18.184 147.689 17.176C147.689 16.312 147.353 15.608 146.665 15.064C145.993 14.52 145.129 14.248 144.057 14.248H139.049V25H144.313ZM141.865 20.44H143.849C144.665 20.44 145.209 20.936 145.209 21.656C145.209 22.408 144.665 22.888 143.849 22.888H141.865V20.44ZM141.865 16.36H143.657C144.377 16.36 144.873 16.808 144.873 17.464C144.873 18.12 144.377 18.552 143.657 18.552H141.865V16.36ZM149.528 21.88C150.104 23.24 151.128 24.216 152.584 24.776C154.04 25.336 155.864 25.336 157.32 24.776C158.776 24.216 159.816 23.24 160.392 21.88C160.968 20.488 160.968 18.744 160.392 17.384C159.816 15.992 158.776 15.032 157.32 14.472C155.864 13.912 154.04 13.912 152.584 14.472C151.128 15.032 150.104 15.992 149.528 17.384C148.952 18.744 148.952 20.488 149.528 21.88ZM154.952 22.904C154.104 22.904 153.416 22.6 152.888 21.992C152.36 21.368 152.088 20.584 152.088 19.624C152.088 18.664 152.36 17.88 152.888 17.272C153.416 16.648 154.104 16.344 154.952 16.344C155.8 16.344 156.504 16.648 157.032 17.272C157.56 17.88 157.832 18.664 157.832 19.624C157.832 20.584 157.56 21.368 157.032 21.992C156.504 22.6 155.8 22.904 154.952 22.904ZM165.066 25V18.232L169.946 25H172.762V14.248H170.074V21.016L165.178 14.248H162.362V25H165.066ZM174.843 20.68C174.795 23.336 177.115 25.24 180.171 25.192C183.227 25.24 185.547 23.336 185.499 20.68V14.248H182.571V20.568C182.571 21.96 181.595 22.904 180.171 22.904C178.763 22.904 177.771 21.96 177.771 20.568V14.248H174.843V20.68ZM186.973 24.296C188.445 24.888 189.869 25.192 191.261 25.192C192.525 25.192 193.549 24.888 194.333 24.28C195.133 23.656 195.533 22.856 195.533 21.864C195.533 17.656 189.917 19.048 189.917 17.32C189.917 16.696 190.525 16.344 191.485 16.344C192.381 16.344 193.389 16.568 194.493 17L195.149 14.824C193.789 14.312 192.493 14.056 191.261 14.056C190.029 14.056 189.005 14.36 188.221 14.968C187.437 15.56 187.037 16.344 187.037 17.32C187.037 21.384 192.653 20.088 192.653 21.864C192.653 22.52 192.045 22.904 191.021 22.904C190.141 22.904 189.005 22.648 187.629 22.12L186.973 24.296ZM203.675 25V18.232L208.555 25H211.371V14.248H208.683V21.016L203.787 14.248H200.971V25H203.675ZM213.357 21.88C213.933 23.24 214.957 24.216 216.413 24.776C217.869 25.336 219.693 25.336 221.149 24.776C222.605 24.216 223.645 23.24 224.221 21.88C224.797 20.488 224.797 18.744 224.221 17.384C223.645 15.992 222.605 15.032 221.149 14.472C219.693 13.912 217.869 13.912 216.413 14.472C214.957 15.032 213.933 15.992 213.357 17.384C212.781 18.744 212.781 20.488 213.357 21.88ZM218.781 22.904C217.933 22.904 217.245 22.6 216.717 21.992C216.189 21.368 215.917 20.584 215.917 19.624C215.917 18.664 216.189 17.88 216.717 17.272C217.245 16.648 217.933 16.344 218.781 16.344C219.629 16.344 220.333 16.648 220.861 17.272C221.389 17.88 221.661 18.664 221.661 19.624C221.661 20.584 221.389 21.368 220.861 21.992C220.333 22.6 219.629 22.904 218.781 22.904ZM227.979 25H230.827L232.779 17.768L234.747 25H237.595L240.987 14.248H238.059L236.091 21.48L234.139 14.248H231.435L229.467 21.48L227.499 14.248H224.571L227.979 25ZM241.792 23.576C241.792 24.536 242.416 25.192 243.392 25.192C244.336 25.192 244.992 24.536 244.992 23.576C244.992 22.632 244.336 21.976 243.392 21.976C242.448 21.976 241.792 22.664 241.792 23.576ZM242.224 21.224H244.56L244.8 14.248H241.984L242.224 21.224Z" fill="white"/>
</svg>
