<svg width="22" height="22" viewBox="0 0 22 22" fill="none" xmlns="http://www.w3.org/2000/svg">
<g clip-path="url(#clip0_133_2513)">
<path d="M21.6208 18.2069H0.379571C0.170099 18.2069 0.000244141 18.037 0.000244141 17.8275V4.17242C0.000244141 3.96295 0.170099 3.79309 0.379571 3.79309H21.6209C21.8303 3.79309 22.0002 3.96295 22.0002 4.17242V17.8275C22.0002 18.037 21.8303 18.2069 21.6208 18.2069Z" fill="#41479B"/>
<path d="M22.0002 4.17242C22.0002 3.96295 21.8303 3.79309 21.6208 3.79309H19.9238L12.8967 8.39705V3.79309H9.10361V8.39705L2.07657 3.79309H0.379571C0.170099 3.79309 0.000244141 3.96295 0.000244141 4.17242V5.15343L6.02912 9.10341H0.000244141V12.8965H6.02912L0.000244141 16.8465V17.8275C0.000244141 18.037 0.170099 18.2069 0.379571 18.2069H2.07662L9.1037 13.6029V18.2069H12.8968V13.6029L19.9239 18.2069H21.6209C21.8304 18.2069 22.0002 18.037 22.0002 17.8275V16.8465L15.9714 12.8965H22.0002V9.10345H15.9713L22.0002 5.15343V4.17242Z" fill="#F5F5F5"/>
<path d="M22.0002 9.86206H12.1381V3.79309H9.86226V9.86206H0.000244141V12.1379H9.86226V18.2069H12.1381V12.1379H22.0002V9.86206Z" fill="#FF4B55"/>
<path d="M7.68951 12.8965L0.0111084 17.8807C0.0379638 18.0639 0.188998 18.2068 0.37965 18.2068H0.902105L9.08289 12.8965H7.68951V12.8965Z" fill="#FF4B55"/>
<path d="M14.8844 12.8965H13.491L21.6599 18.199C21.8502 18.1787 22.0005 18.0232 22.0005 17.8275V17.5156L14.8844 12.8965Z" fill="#FF4B55"/>
<path d="M0.000488281 4.59126L6.9519 9.10356H8.34529L0.221476 3.8302C0.0917106 3.89049 0.000488281 4.02004 0.000488281 4.17253V4.59126Z" fill="#FF4B55"/>
<path d="M14.2905 9.10353L21.9873 4.10727C21.9553 3.93015 21.8075 3.79321 21.6212 3.79321H21.0778L12.8971 9.10353H14.2905Z" fill="#FF4B55"/>
</g>
<defs>
<clipPath id="clip0_133_2513">
<rect width="22" height="22" fill="white"/>
</clipPath>
</defs>
</svg>
