<svg width="221" height="60" viewBox="0 0 221 60" fill="none" xmlns="http://www.w3.org/2000/svg">
<path fill-rule="evenodd" clip-rule="evenodd" d="M25.1534 45.0989L46.425 23.8117C48.2058 22.0296 50.9761 22.0296 52.658 23.8117L59.8804 31.0395C61.6613 32.8216 61.6613 35.5939 59.8804 37.2771L38.6089 58.6632C36.828 60.4454 34.0578 60.4454 32.3758 58.6632L25.1534 51.4355C23.3725 49.6533 23.3725 46.881 25.1534 45.0989Z" fill="#5426FF"/>
<path fill-rule="evenodd" clip-rule="evenodd" d="M25.1534 45.0989L46.425 23.8117C48.2058 22.0296 50.9761 22.0296 52.658 23.8117L59.8804 31.0395C61.6613 32.8216 61.6613 35.5939 59.8804 37.2771L38.6089 58.6632C36.828 60.4454 34.0578 60.4454 32.3758 58.6632L25.1534 51.4355C23.3725 49.6533 23.3725 46.881 25.1534 45.0989Z" fill="#5426FF"/>
<path opacity="0.5" fill-rule="evenodd" clip-rule="evenodd" d="M49.9867 38.3663C51.7676 36.5842 51.7676 33.8119 49.9867 32.1287L44.0505 26.1881L25.1534 45.099C23.3725 46.8812 23.3725 49.6535 25.1534 51.3366L31.0897 57.2772L49.9867 38.3663Z" fill="#4911D4"/>
<path fill-rule="evenodd" clip-rule="evenodd" d="M3.48605 21.8317L23.8672 1.33663C25.648 -0.445545 28.4183 -0.445545 30.1002 1.33663L37.3227 8.56436C39.1035 10.3465 39.1035 13.1188 37.3227 14.802L16.9415 35.297C15.1607 37.0792 12.3904 37.0792 10.7085 35.297L3.48605 28.0693C1.70517 26.3861 1.70517 23.5149 3.48605 21.8317Z" fill="#5426FF"/>
<path opacity="0.5" fill-rule="evenodd" clip-rule="evenodd" d="M37.4216 14.9009C39.2025 13.1188 39.2025 10.3465 37.4216 8.66332L31.9801 3.21777L13.3798 21.8316C11.599 23.6138 11.599 26.3861 13.3798 28.0693L18.8214 33.5148L37.4216 14.9009Z" fill="#4911D4"/>
<path fill-rule="evenodd" clip-rule="evenodd" d="M62.9474 18.4653L57.3079 19.4554C56.3186 19.6534 55.4281 19.3564 54.7356 18.6633L42.962 6.88113C40.3896 4.30688 36.0364 4.30688 33.464 6.88113L0.221031 40.0494C-0.273656 40.5445 0.122094 41.2376 0.814656 41.1386L6.94878 40.1485C7.83922 40.0494 8.72965 40.2475 9.32328 40.9405L20.9979 52.6237C23.966 55.594 27.8246 55.396 30.7927 52.3267L63.541 19.5544C64.0357 19.0594 63.541 18.2673 62.9474 18.4653ZM43.8525 24.9999L28.715 40.1485C27.231 41.6336 24.7575 41.6336 23.2735 40.1485L20.0085 36.8811C19.5138 36.3861 19.4149 35.495 20.0085 34.9009L35.4428 19.4554C36.729 18.1683 38.9056 18.1683 40.1918 19.4554L43.8525 23.1188C44.3471 23.6138 44.3471 24.5049 43.8525 24.9999Z" fill="#CD40A7"/>
<path fill-rule="evenodd" clip-rule="evenodd" d="M46.1281 36.9802L43.6547 34.2079L33.7609 35.099L28.7151 40.1485C27.2311 41.6336 24.7576 41.6336 23.2736 40.1485L28.3194 45.198C31.2875 48.1683 35.1461 47.9703 38.1142 44.901L46.1281 36.9802Z" fill="url(#paint0_linear_1_3581)"/>
<path fill-rule="evenodd" clip-rule="evenodd" d="M25.7469 14.5049L15.7542 24.5049C19.316 26.9802 23.2735 29.7525 23.2735 29.7525C23.2735 29.7525 23.4713 30.2475 23.7681 30.9406L35.4428 19.2574C36.729 17.9703 38.9056 17.9703 40.1918 19.2574L35.3438 14.4059C32.6725 11.8317 28.4182 11.8317 25.7469 14.5049Z" fill="url(#paint1_linear_1_3581)"/>
<g clip-path="url(#clip0_1_3581)">
<path d="M103.967 19.277H90.462C89.5221 19.277 88.7306 19.6038 88.0776 20.2671C87.4147 20.9206 87.0882 21.7127 87.0882 22.6533V27.1879C87.0882 28.1285 87.4147 28.9206 88.0776 29.584C88.7306 30.2374 89.532 30.5642 90.4719 30.5642H103.977C104.274 30.5642 104.531 30.6632 104.749 30.8711C104.966 31.079 105.075 31.3265 105.075 31.6335V36.1681C105.075 36.4652 104.966 36.7226 104.749 36.9404C104.531 37.1582 104.274 37.2671 103.977 37.2671H90.462C90.1652 37.2671 89.9079 37.1582 89.6903 36.9404C89.4726 36.7226 89.3638 36.4652 89.3638 36.1681V35.376H87.0882V36.1681C87.0882 37.1087 87.4147 37.9008 88.0776 38.5642C88.7306 39.2176 89.532 39.5444 90.4719 39.5444H103.977C104.917 39.5444 105.708 39.2176 106.371 38.5642C107.024 37.9107 107.36 37.1087 107.36 36.1681V31.6335C107.36 30.6929 107.034 29.9008 106.371 29.2374C105.718 28.584 104.917 28.2572 103.977 28.2572H90.462C90.1652 28.2572 89.9079 28.1582 89.6903 27.9503C89.4726 27.7424 89.3638 27.485 89.3638 27.1879V22.6533C89.3638 22.3562 89.4726 22.0988 89.6903 21.881C89.9079 21.6632 90.1652 21.5543 90.462 21.5543H103.967C104.264 21.5543 104.521 21.6632 104.739 21.881C104.956 22.0988 105.065 22.3562 105.065 22.6533V23.4454H107.341V22.6533C107.341 21.7127 107.014 20.9206 106.351 20.2572C105.698 19.6038 104.907 19.277 103.967 19.277ZM123.329 23.2176L116.918 30.2275H112.416V17.8711H110.111V39.5444H112.416V32.5345H116.918L123.329 39.5444H126.337L118.966 31.3859L126.366 23.2176H123.329ZM128.563 20.178H130.868V17.8711H128.563V20.178ZM128.563 39.5444H130.868V23.2176H128.563V39.5444ZM147.203 23.2176H133.985V39.5444H136.29V26.6236C136.29 26.3265 136.399 26.0691 136.626 25.8513C136.854 25.6335 137.111 25.5246 137.418 25.5246H147.203C147.499 25.5246 147.757 25.6335 147.974 25.8513C148.192 26.0691 148.301 26.3265 148.301 26.6236V39.5444H150.606V26.6236C150.606 25.683 150.27 24.881 149.607 24.2176C148.944 23.5543 148.142 23.2176 147.203 23.2176ZM154.415 20.2671C153.762 20.9206 153.426 21.7226 153.426 22.6632V36.1681C153.426 37.1087 153.752 37.9008 154.415 38.5642C155.068 39.2176 155.87 39.5444 156.809 39.5444H173.629V37.2671H156.809C156.513 37.2671 156.255 37.1582 156.038 36.9404C155.82 36.7226 155.711 36.4652 155.711 36.1681V22.6533C155.711 22.3562 155.82 22.0988 156.038 21.881C156.255 21.6632 156.513 21.5543 156.809 21.5543H173.629V19.277H156.809C155.87 19.277 155.068 19.6038 154.415 20.2671ZM178.971 36.9107C178.754 36.6929 178.645 36.4355 178.645 36.1384V17.8711H176.34V36.1384C176.34 37.079 176.676 37.881 177.339 38.5444C178.002 39.2077 178.803 39.5444 179.743 39.5444H182.503V37.2374H179.743C179.446 37.2374 179.189 37.1285 178.971 36.9107ZM199.263 36.1384C199.263 36.4355 199.155 36.6929 198.927 36.9107C198.7 37.1285 198.442 37.2374 198.136 37.2374H188.351C188.054 37.2374 187.797 37.1285 187.579 36.9107C187.361 36.6929 187.252 36.4355 187.252 36.1384V23.2176H184.947V36.1384C184.947 37.079 185.284 37.881 185.946 38.5444C186.609 39.2077 187.411 39.5444 188.351 39.5444H198.136C199.095 39.5444 199.907 39.2077 200.569 38.5444C201.232 37.881 201.569 37.079 201.569 36.1384V23.2176H199.263V36.1384ZM220.001 24.2176C219.338 23.5543 218.536 23.2176 217.597 23.2176H206.684V17.8711H204.379V39.5444H217.597C218.536 39.5444 219.338 39.2077 220.001 38.5444C220.664 37.881 221 37.079 221 36.1384V26.6236C221 25.683 220.674 24.881 220.001 24.2176ZM218.695 36.1384C218.695 36.4355 218.586 36.6929 218.368 36.9107C218.151 37.1285 217.893 37.2374 217.597 37.2374H207.812C207.515 37.2374 207.248 37.1285 207.02 36.9107C206.793 36.6929 206.684 36.4355 206.684 36.1384V26.6236C206.684 26.3265 206.793 26.0691 207.02 25.8513C207.248 25.6335 207.505 25.5246 207.812 25.5246H217.597C217.893 25.5246 218.151 25.6335 218.368 25.8513C218.586 26.0691 218.695 26.3265 218.695 26.6236V36.1384Z" fill="white"/>
</g>
<defs>
<linearGradient id="paint0_linear_1_3581" x1="10.8587" y1="53.0644" x2="37.5849" y2="39.2433" gradientUnits="userSpaceOnUse">
<stop stop-color="#6311DD"/>
<stop offset="1" stop-color="#6311DD" stop-opacity="0"/>
</linearGradient>
<linearGradient id="paint1_linear_1_3581" x1="50.1093" y1="-0.629922" x2="28.5994" y2="21.2459" gradientUnits="userSpaceOnUse">
<stop stop-color="#6311DD"/>
<stop offset="1" stop-color="#6311DD" stop-opacity="0"/>
</linearGradient>
<clipPath id="clip0_1_3581">
<rect width="133.912" height="21.6733" fill="white" transform="translate(87.0882 18.8612)"/>
</clipPath>
</defs>
</svg>
