<svg width="110" height="43" viewBox="0 0 110 43" fill="none" xmlns="http://www.w3.org/2000/svg">
<path d="M0 22.6808V16.6448L23.0466 0L44.6299 16.6448H40.6059V22.6808H31.2775V12.072L23.0466 6.03601L0 22.6808Z" fill="#333333"/>
<path d="M0 24.1441V42.6179H9.14547V17.5593L0 24.1441Z" fill="black" fill-opacity="0.29"/>
<path d="M24.6156 37.0992H17.2335L15.538 42.8008H12.7172L19.7542 20.9546H22.1099L29.1619 42.8008H26.3411L24.6156 37.0992ZM17.9537 34.7285H23.9104L20.9246 24.7957L17.9537 34.7285Z" fill="#333333"/>
<path d="M33.1781 37.0992V42.8008H31.3475V28.2367H35.9889C37.3426 28.2367 38.4062 28.6435 39.1798 29.457C39.9533 30.2639 40.3401 31.3409 40.3401 32.6879C40.3401 34.0883 39.97 35.1686 39.2298 35.9289C38.4962 36.6824 37.4593 37.0725 36.1189 37.0992H33.1781ZM33.1781 35.5288H35.9889C36.8024 35.5288 37.4259 35.2853 37.8594 34.7985C38.2929 34.3117 38.5096 33.6149 38.5096 32.7079C38.5096 31.8344 38.2862 31.1342 37.8394 30.6073C37.3926 30.0805 36.7791 29.8171 35.9989 29.8171H33.1781V35.5288Z" fill="#333333"/>
<path d="M51.2232 29.8171H47.3921V42.8008H45.5616V29.8171H41.7405V28.2367H51.2232V29.8171Z" fill="#333333"/>
<path d="M54.084 37.3693H49.9529V35.8588H54.084V37.3693Z" fill="#333333"/>
<path d="M63.6468 29.8171H57.9151V34.1784H60.856C62.163 34.185 63.1866 34.5685 63.9268 35.3287C64.6671 36.0822 65.0372 37.1225 65.0372 38.4496C65.0372 39.7833 64.6604 40.8436 63.9068 41.6305C63.16 42.4107 62.123 42.8008 60.7959 42.8008H56.0746V28.2367H63.6468V29.8171ZM57.9151 35.7588V41.2304H60.836C61.5828 41.2304 62.163 40.9736 62.5765 40.4602C62.9899 39.9467 63.1966 39.2698 63.1966 38.4296C63.1966 37.6027 62.9899 36.9525 62.5765 36.479C62.1697 35.9989 61.5928 35.7588 60.846 35.7588H57.9151Z" fill="#333333"/>
<path d="M74.3798 36.0689H69.2284V41.2304H75.2301V42.8008H67.3978V28.2367H75.13V29.8171H69.2284V34.4985H74.3798V36.0689Z" fill="#333333"/>
<path d="M86.2932 29.8171H82.4621V42.8008H80.6316V29.8171H76.8105V28.2367H86.2932V29.8171Z" fill="#333333"/>
<path d="M97.6365 36.7991C97.6365 38.7863 97.213 40.3168 96.3661 41.3904C95.5192 42.4641 94.3155 43.0009 92.7551 43.0009C91.2546 43.0009 90.0676 42.4807 89.1941 41.4404C88.3271 40.3935 87.877 38.9164 87.8437 37.0092V34.2684C87.8437 32.3212 88.2738 30.7974 89.134 29.6971C89.9943 28.5901 91.1946 28.0366 92.7351 28.0366C94.2688 28.0366 95.4625 28.5668 96.3161 29.6271C97.1763 30.6807 97.6165 32.1878 97.6365 34.1484V36.7991ZM95.8059 34.2484C95.8059 32.7079 95.5525 31.5643 95.0457 30.8174C94.5456 30.0639 93.7754 29.6871 92.7351 29.6871C91.7281 29.6871 90.9646 30.0672 90.4444 30.8274C89.9309 31.5876 89.6709 32.7079 89.6642 34.1884V36.7991C89.6642 38.2862 89.9209 39.4199 90.4344 40.2001C90.9546 40.9803 91.7281 41.3704 92.7551 41.3704C93.782 41.3704 94.5422 41.0103 95.0357 40.2901C95.5292 39.5699 95.7859 38.4663 95.8059 36.9792V34.2484Z" fill="#333333"/>
<path d="M110 42.8008H108.159V36.0689H102.298V42.8008H100.467V28.2367H102.298V34.4985H108.159V28.2367H110V42.8008Z" fill="#333333"/>
</svg>
