<svg width="136" height="54" viewBox="0 0 136 54" fill="none" xmlns="http://www.w3.org/2000/svg">
<path d="M0 28.0417V20.579L28.494 0L55.1788 20.579H50.2036V28.0417H38.6704V14.9254L28.494 7.4627L0 28.0417Z" fill="#F2BF14"/>
<path d="M0 29.8508V52.6912H11.3071V21.7097L0 29.8508Z" fill="#858585"/>
<path d="M30.4339 45.8681H21.3069L19.2107 52.9174H15.7231L24.4234 25.9075H27.3359L36.0548 52.9174H32.5672L30.4339 45.8681ZM22.1974 42.9371H29.562L25.8704 30.6565L22.1974 42.9371Z" fill="white"/>
<path d="M41.0202 45.8681V52.9174H38.757V34.9108H44.4954C46.1691 34.9108 47.4841 35.4137 48.4405 36.4196C49.3969 37.4172 49.8751 38.7487 49.8751 40.4142C49.8751 42.1456 49.4175 43.4812 48.5023 44.4211C47.5954 45.3528 46.3133 45.8351 44.6561 45.8681H41.0202ZM41.0202 43.9264H44.4954C45.5012 43.9264 46.2721 43.6255 46.808 43.0236C47.3439 42.4218 47.6119 41.5602 47.6119 40.4389C47.6119 39.3588 47.3357 38.4931 46.7833 37.8418C46.2309 37.1905 45.4724 36.8648 44.5077 36.8648H41.0202V43.9264Z" fill="white"/>
<path d="M63.3306 36.8648H58.5939V52.9174H56.3307V36.8648H51.6065V34.9108H63.3306V36.8648Z" fill="white"/>
<path d="M66.8676 46.202H61.7599V44.3346H66.8676V46.202Z" fill="white"/>
<path d="M78.6906 36.8648H71.6042V42.2569H75.2402C76.8561 42.2651 78.1217 42.7392 79.0369 43.6791C79.952 44.6108 80.4096 45.8969 80.4096 47.5377C80.4096 49.1866 79.9438 50.4975 79.0121 51.4704C78.0887 52.4351 76.8067 52.9174 75.1659 52.9174H69.3286V34.9108H78.6906V36.8648ZM71.6042 44.2109V50.9757H75.2154C76.1388 50.9757 76.8561 50.6583 77.3673 50.0235C77.8785 49.3886 78.1341 48.5518 78.1341 47.5129C78.1341 46.4906 77.8785 45.6867 77.3673 45.1013C76.8644 44.5077 76.1512 44.2109 75.2278 44.2109H71.6042Z" fill="white"/>
<path d="M91.9606 44.5943H85.5915V50.9757H93.0118V52.9174H83.3283V34.9108H92.8881V36.8648H85.5915V42.6526H91.9606V44.5943Z" fill="white"/>
<path d="M106.69 36.8648H101.953V52.9174H99.69V36.8648H94.9658V34.9108H106.69V36.8648Z" fill="white"/>
<path d="M120.714 45.4971C120.714 47.954 120.191 49.8462 119.144 51.1736C118.097 52.501 116.608 53.1647 114.679 53.1647C112.824 53.1647 111.356 52.5216 110.276 51.2354C109.205 49.941 108.648 48.1148 108.607 45.7568V42.3682C108.607 39.9607 109.139 38.0768 110.202 36.7164C111.266 35.3477 112.75 34.6634 114.654 34.6634C116.551 34.6634 118.026 35.3189 119.082 36.6298C120.145 37.9325 120.69 39.7958 120.714 42.2198V45.4971ZM118.451 42.3434C118.451 40.4389 118.138 39.0249 117.511 38.1015C116.893 37.1698 115.941 36.704 114.654 36.704C113.409 36.704 112.465 37.174 111.822 38.1139C111.187 39.0538 110.866 40.4389 110.858 42.2692V45.4971C110.858 47.3357 111.175 48.7373 111.81 49.7019C112.453 50.6665 113.409 51.1489 114.679 51.1489C115.949 51.1489 116.889 50.7036 117.499 49.8132C118.109 48.9228 118.426 47.5583 118.451 45.7197V42.3434Z" fill="white"/>
<path d="M136 52.9174H133.724V44.5943H126.477V52.9174H124.214V34.9108H126.477V42.6526H133.724V34.9108H136V52.9174Z" fill="white"/>
</svg>
